<svg width="223" height="113" viewBox="0 0 223 113" fill="none" xmlns="http://www.w3.org/2000/svg">
<path d="M41.6094 68.1094H32.7734C32.1172 70.1719 31.4062 71.9609 30.6406 73.4766C29.8906 74.9922 29.0547 76.25 28.1328 77.25C27.2109 78.25 26.1953 78.9922 25.0859 79.4766C23.9922 79.9609 22.7656 80.2031 21.4062 80.2031C20.6562 80.2031 19.9375 80.1328 19.25 79.9922C18.5469 79.8672 17.9297 79.6875 17.3984 79.4531C16.8672 79.2188 16.4453 78.9375 16.1328 78.6094C15.8047 78.2969 15.6406 77.9531 15.6406 77.5781C15.6406 77.2969 15.6875 77.0156 15.7812 76.7344C15.8594 76.4375 15.9766 76.1719 16.1328 75.9375C16.2891 75.6875 16.4844 75.4922 16.7188 75.3516C16.9375 75.1953 17.1875 75.1172 17.4688 75.1172C17.7188 75.1172 17.9375 75.2891 18.125 75.6328C18.3125 75.9766 18.5547 76.3594 18.8516 76.7812C19.1328 77.1875 19.5 77.5625 19.9531 77.9062C20.4062 78.25 21.0312 78.4219 21.8281 78.4219C22.6406 78.4219 23.4141 78.2266 24.1484 77.8359C24.8828 77.4453 25.5859 76.8359 26.2578 76.0078C26.9453 75.1641 27.6016 74.0938 28.2266 72.7969C28.8516 71.5 29.4609 69.9375 30.0547 68.1094H24.5234V66.0469H30.6641C31.1797 64.2969 31.6797 62.5312 32.1641 60.75C32.6641 58.9688 33.1328 57.2578 33.5703 55.6172C34.0078 53.9766 34.3984 52.4453 34.7422 51.0234C35.0859 49.5859 35.375 48.3359 35.6094 47.2734C35.2969 46.3984 34.8672 45.8125 34.3203 45.5156C33.7891 45.2188 33.0703 45.0703 32.1641 45.0703C31.3203 45.0703 30.4453 45.2031 29.5391 45.4688C28.6484 45.7188 27.8359 46.0859 27.1016 46.5703C26.3672 47.0391 25.7578 47.625 25.2734 48.3281C24.8047 49.0156 24.5703 49.7891 24.5703 50.6484C24.5703 51.1484 24.6328 51.5469 24.7578 51.8438C24.8984 52.1406 25.0547 52.3672 25.2266 52.5234C25.4141 52.6641 25.5938 52.7578 25.7656 52.8047C25.9375 52.8359 26.0703 52.8516 26.1641 52.8516C26.5391 52.8516 26.8516 52.7891 27.1016 52.6641C27.3672 52.5234 27.5938 52.3828 27.7812 52.2422C27.9844 52.0859 28.1797 51.9453 28.3672 51.8203C28.5547 51.6797 28.7656 51.6094 29 51.6094C29.1719 51.6094 29.3594 51.6562 29.5625 51.75C29.7812 51.8281 29.9766 51.9609 30.1484 52.1484C30.3359 52.3359 30.4922 52.5859 30.6172 52.8984C30.7422 53.1953 30.8047 53.5625 30.8047 54C30.8047 54.625 30.6797 55.1641 30.4297 55.6172C30.1953 56.0703 29.8828 56.4531 29.4922 56.7656C29.1172 57.0625 28.6797 57.2891 28.1797 57.4453C27.6953 57.5859 27.2109 57.6562 26.7266 57.6562C25.9766 57.6562 25.2969 57.5234 24.6875 57.2578C24.0938 56.9766 23.5859 56.6016 23.1641 56.1328C22.7422 55.6641 22.4219 55.1172 22.2031 54.4922C21.9844 53.8672 21.875 53.2109 21.875 52.5234C21.875 51.4922 22.0469 50.5469 22.3906 49.6875C22.7344 48.8125 23.2109 48.0234 23.8203 47.3203C24.4297 46.6016 25.1484 45.9766 25.9766 45.4453C26.8047 44.8984 27.6953 44.4453 28.6484 44.0859C29.6172 43.7109 30.625 43.4297 31.6719 43.2422C32.7188 43.0547 33.7734 42.9609 34.8359 42.9609C36.3359 42.9609 37.6016 43.0859 38.6328 43.3359C39.6797 43.5703 40.5547 43.9297 41.2578 44.4141C41.9609 44.8828 42.5234 45.4844 42.9453 46.2188C43.3828 46.9375 43.7422 47.7734 44.0234 48.7266L49.0625 66.0469H54.1484V68.1094H49.625L51.4531 74.25C51.5156 74.4844 51.5781 74.7031 51.6406 74.9062C51.7031 75.1094 51.7734 75.2891 51.8516 75.4453C51.9453 75.5859 52.0547 75.7031 52.1797 75.7969C52.3203 75.8906 52.4922 75.9375 52.6953 75.9375C53.1328 75.9375 53.5391 75.8672 53.9141 75.7266C54.2891 75.5703 54.6172 75.4141 54.8984 75.2578L55.2969 76.125C55.0156 76.3281 54.6562 76.5625 54.2188 76.8281C53.7969 77.0781 53.3047 77.3203 52.7422 77.5547C52.1953 77.7891 51.5859 77.9844 50.9141 78.1406C50.2422 78.2969 49.5234 78.375 48.7578 78.375C47.6953 78.375 46.8359 78.2422 46.1797 77.9766C45.5391 77.7109 45.0312 77.3828 44.6562 76.9922C44.2969 76.6016 44.0312 76.1875 43.8594 75.75C43.7031 75.3125 43.5781 74.9297 43.4844 74.6016L41.6094 68.1094ZM37.0625 52.2656C36.4219 54.875 35.7969 57.3281 35.1875 59.625C34.5938 61.9219 34 64.0625 33.4062 66.0469H41.0469L37.0625 52.2656ZM71.4219 66.3281C71.4219 64.9688 71.3516 63.6953 71.2109 62.5078C71.0703 61.3047 70.8438 60.2578 70.5312 59.3672C70.2188 58.4609 69.8203 57.75 69.3359 57.2344C68.8516 56.7031 68.2656 56.4375 67.5781 56.4375C67.0469 56.4375 66.5938 56.5703 66.2188 56.8359C65.8594 57.0859 65.5625 57.375 65.3281 57.7031C65.0938 58.0312 64.9219 58.3594 64.8125 58.6875C64.7031 59 64.6484 59.2109 64.6484 59.3203V66.3281C64.6484 69.7344 64.9297 72.2109 65.4922 73.7578C66.0703 75.3047 66.9141 76.0781 68.0234 76.0781C69.1953 76.0781 70.0547 75.2891 70.6016 73.7109C71.1484 72.1328 71.4219 69.6719 71.4219 66.3281ZM57.4531 45.6562C57.4531 45.2031 57.3438 44.8125 57.125 44.4844C56.9219 44.1406 56.5703 43.9688 56.0703 43.9688C55.8047 43.9688 55.5703 44.0156 55.3672 44.1094C55.1797 44.1875 54.9766 44.3125 54.7578 44.4844L54.2891 43.9219C54.6484 43.625 55.0469 43.3359 55.4844 43.0547C55.9375 42.7578 56.4219 42.5 56.9375 42.2812C57.4531 42.0625 58.0078 41.8828 58.6016 41.7422C59.1953 41.6016 59.8203 41.5312 60.4766 41.5312C61.3828 41.5312 62.1094 41.6719 62.6562 41.9531C63.2188 42.2188 63.6406 42.5547 63.9219 42.9609C64.2188 43.3516 64.4141 43.7812 64.5078 44.25C64.6016 44.7031 64.6484 45.125 64.6484 45.5156V55.9688C64.8359 55.7969 65.0781 55.5859 65.375 55.3359C65.6719 55.0703 66.0469 54.8125 66.5 54.5625C66.9531 54.3125 67.4922 54.1016 68.1172 53.9297C68.7578 53.7578 69.5078 53.6719 70.3672 53.6719C71.3672 53.6719 72.3672 53.9062 73.3672 54.375C74.3672 54.8281 75.2656 55.5469 76.0625 56.5312C76.8594 57.5156 77.5078 58.7812 78.0078 60.3281C78.5078 61.875 78.7578 63.7344 78.7578 65.9062C78.7578 67.6094 78.5234 69.2188 78.0547 70.7344C77.6016 72.25 76.9219 73.5781 76.0156 74.7188C75.1094 75.8438 73.9766 76.7344 72.6172 77.3906C71.2578 78.0469 69.6797 78.375 67.8828 78.375C65.9297 78.375 64.2812 78.0625 62.9375 77.4375C61.6094 76.7969 60.5391 75.9453 59.7266 74.8828C58.9141 73.8047 58.3281 72.5547 57.9688 71.1328C57.625 69.7109 57.4531 68.2109 57.4531 66.6328V45.6562ZM81.8047 66C81.8047 63.9531 82.1016 62.1641 82.6953 60.6328C83.2891 59.0859 84.0781 57.7969 85.0625 56.7656C86.0625 55.7344 87.2188 54.9609 88.5312 54.4453C89.8438 53.9297 91.2188 53.6719 92.6562 53.6719C94.0938 53.6719 95.4688 53.9141 96.7812 54.3984C98.0938 54.8672 99.2422 55.5938 100.227 56.5781C101.227 57.5625 102.023 58.8125 102.617 60.3281C103.211 61.8281 103.508 63.6094 103.508 65.6719C103.508 67.7188 103.211 69.5312 102.617 71.1094C102.023 72.6875 101.227 74.0156 100.227 75.0938C99.2422 76.1719 98.0938 76.9922 96.7812 77.5547C95.4688 78.1016 94.0938 78.375 92.6562 78.375C91.2188 78.375 89.8438 78.1172 88.5312 77.6016C87.2188 77.0703 86.0625 76.2891 85.0625 75.2578C84.0781 74.2266 83.2891 72.9375 82.6953 71.3906C82.1016 69.8438 81.8047 68.0469 81.8047 66ZM96.2188 65.7656C96.2188 64.5156 96.1719 63.3125 96.0781 62.1562C96 60.9844 95.8359 59.9453 95.5859 59.0391C95.3359 58.1328 94.9766 57.4141 94.5078 56.8828C94.0391 56.3359 93.4219 56.0625 92.6562 56.0625C91.8906 56.0625 91.2734 56.3516 90.8047 56.9297C90.3359 57.4922 89.9766 58.2422 89.7266 59.1797C89.4766 60.1016 89.3125 61.1562 89.2344 62.3438C89.1562 63.5312 89.1172 64.75 89.1172 66C89.1172 67.25 89.1562 68.4766 89.2344 69.6797C89.3125 70.8672 89.4766 71.9297 89.7266 72.8672C89.9766 73.8047 90.3359 74.5625 90.8047 75.1406C91.2734 75.7031 91.8906 75.9844 92.6562 75.9844C93.4219 75.9844 94.0391 75.6875 94.5078 75.0938C94.9766 74.5 95.3359 73.7188 95.5859 72.75C95.8359 71.7812 96 70.6875 96.0781 69.4688C96.1719 68.25 96.2188 67.0156 96.2188 65.7656ZM128.398 73.9219C128.398 74.0625 128.406 74.2188 128.422 74.3906C128.438 74.5469 128.477 74.7031 128.539 74.8594C128.602 75 128.695 75.1172 128.82 75.2109C128.945 75.3047 129.125 75.3516 129.359 75.3516C129.656 75.3516 129.922 75.25 130.156 75.0469C130.391 74.8281 130.609 74.6094 130.812 74.3906L131.375 74.8828C131.141 75.2109 130.844 75.5781 130.484 75.9844C130.141 76.375 129.719 76.75 129.219 77.1094C128.719 77.4688 128.148 77.7656 127.508 78C126.867 78.25 126.141 78.375 125.328 78.375C124.641 78.375 124.039 78.2812 123.523 78.0938C123.023 77.9219 122.594 77.6875 122.234 77.3906C121.891 77.0781 121.633 76.7188 121.461 76.3125C121.289 75.8906 121.203 75.4453 121.203 74.9766V73.9219C120.422 74.7656 119.602 75.5078 118.742 76.1484C118.367 76.4297 117.969 76.7031 117.547 76.9688C117.125 77.2344 116.688 77.4766 116.234 77.6953C115.781 77.8984 115.312 78.0625 114.828 78.1875C114.344 78.3125 113.859 78.375 113.375 78.375C112.438 78.375 111.633 78.2109 110.961 77.8828C110.305 77.5391 109.773 77.0938 109.367 76.5469C108.961 76 108.664 75.3828 108.477 74.6953C108.289 74.0078 108.195 73.3203 108.195 72.6328V58.125C108.195 57.9844 108.188 57.8359 108.172 57.6797C108.156 57.5078 108.117 57.3516 108.055 57.2109C107.992 57.0547 107.898 56.9297 107.773 56.8359C107.648 56.7422 107.469 56.6953 107.234 56.6953C106.953 56.6953 106.688 56.8047 106.438 57.0234C106.203 57.2266 105.992 57.4375 105.805 57.6562L105.219 57.1641C105.453 56.8359 105.742 56.4766 106.086 56.0859C106.445 55.6797 106.875 55.2969 107.375 54.9375C107.875 54.5781 108.445 54.2812 109.086 54.0469C109.742 53.7969 110.469 53.6719 111.266 53.6719C111.953 53.6719 112.555 53.7656 113.07 53.9531C113.586 54.125 114.016 54.3672 114.359 54.6797C114.703 54.9766 114.961 55.3359 115.133 55.7578C115.305 56.1641 115.391 56.6016 115.391 57.0703V72.7266C115.391 72.9453 115.422 73.1719 115.484 73.4062C115.562 73.625 115.664 73.8281 115.789 74.0156C115.93 74.2031 116.102 74.3594 116.305 74.4844C116.508 74.5938 116.75 74.6484 117.031 74.6484C117.484 74.6484 117.938 74.5312 118.391 74.2969C118.844 74.0625 119.258 73.7891 119.633 73.4766C120.008 73.1484 120.328 72.8281 120.594 72.5156C120.875 72.2031 121.078 71.9688 121.203 71.8125V58.125C121.203 57.9844 121.195 57.8359 121.18 57.6797C121.164 57.5078 121.125 57.3516 121.062 57.2109C121 57.0547 120.906 56.9297 120.781 56.8359C120.656 56.7422 120.477 56.6953 120.242 56.6953C119.961 56.6953 119.695 56.8047 119.445 57.0234C119.211 57.2266 119 57.4375 118.812 57.6562L118.227 57.1641C118.461 56.8359 118.75 56.4766 119.094 56.0859C119.453 55.6797 119.883 55.2969 120.383 54.9375C120.883 54.5781 121.453 54.2812 122.094 54.0469C122.75 53.7969 123.477 53.6719 124.273 53.6719C124.961 53.6719 125.562 53.7656 126.078 53.9531C126.594 54.125 127.023 54.3672 127.367 54.6797C127.711 54.9766 127.969 55.3359 128.141 55.7578C128.312 56.1641 128.398 56.6016 128.398 57.0703V73.9219ZM142.18 55.6875V73.0078C142.18 73.8359 142.336 74.4141 142.648 74.7422C142.961 75.0547 143.391 75.2109 143.938 75.2109C144.359 75.2109 144.734 75.0938 145.062 74.8594C145.391 74.625 145.672 74.3594 145.906 74.0625C146.188 73.7344 146.43 73.3516 146.633 72.9141L147.359 73.2422C147.125 73.7422 146.844 74.2891 146.516 74.8828C146.203 75.4766 145.781 76.0312 145.25 76.5469C144.719 77.0469 144.047 77.4688 143.234 77.8125C142.438 78.1562 141.43 78.3281 140.211 78.3281C139.523 78.3281 138.859 78.2266 138.219 78.0234C137.594 77.8203 137.031 77.5 136.531 77.0625C136.047 76.625 135.656 76.0781 135.359 75.4219C135.062 74.7656 134.914 73.9766 134.914 73.0547V55.6875H132.289V54C132.727 54 133.336 53.8906 134.117 53.6719C134.898 53.4375 135.695 53.0547 136.508 52.5234C137.336 51.9922 138.102 51.2812 138.805 50.3906C139.508 49.5 140.008 48.3984 140.305 47.0859H142.18V54H146C147.25 54 147.875 53.7891 147.875 53.3672C147.875 53.2109 147.797 53.1094 147.641 53.0625C147.484 53 147.305 52.9297 147.102 52.8516C146.914 52.7578 146.742 52.6328 146.586 52.4766C146.43 52.3203 146.352 52.0625 146.352 51.7031C146.352 51.2656 146.484 50.9219 146.75 50.6719C147.031 50.4219 147.391 50.2969 147.828 50.2969C148.109 50.2969 148.352 50.3594 148.555 50.4844C148.773 50.5938 148.953 50.75 149.094 50.9531C149.234 51.1406 149.336 51.3594 149.398 51.6094C149.477 51.8594 149.516 52.1094 149.516 52.3594C149.516 53.375 149.219 54.1875 148.625 54.7969C148.047 55.3906 147.109 55.6875 145.812 55.6875H142.18ZM182.07 73.9219C182.07 74.0625 182.078 74.2188 182.094 74.3906C182.109 74.5469 182.148 74.7031 182.211 74.8594C182.273 75 182.367 75.1172 182.492 75.2109C182.617 75.3047 182.797 75.3516 183.031 75.3516C183.328 75.3516 183.594 75.25 183.828 75.0469C184.062 74.8281 184.281 74.6094 184.484 74.3906L185.047 74.8828C184.812 75.2109 184.516 75.5781 184.156 75.9844C183.812 76.375 183.391 76.75 182.891 77.1094C182.391 77.4688 181.82 77.7656 181.18 78C180.539 78.25 179.812 78.375 179 78.375C178.312 78.375 177.711 78.2812 177.195 78.0938C176.695 77.9219 176.266 77.6875 175.906 77.3906C175.562 77.0781 175.305 76.7188 175.133 76.3125C174.961 75.8906 174.875 75.4453 174.875 74.9766V73.9219C174.094 74.7656 173.273 75.5078 172.414 76.1484C172.039 76.4297 171.641 76.7031 171.219 76.9688C170.797 77.2344 170.359 77.4766 169.906 77.6953C169.453 77.8984 168.984 78.0625 168.5 78.1875C168.016 78.3125 167.531 78.375 167.047 78.375C166.109 78.375 165.305 78.2109 164.633 77.8828C163.977 77.5391 163.445 77.0938 163.039 76.5469C162.633 76 162.336 75.3828 162.148 74.6953C161.961 74.0078 161.867 73.3203 161.867 72.6328V58.125C161.867 57.9844 161.859 57.8359 161.844 57.6797C161.828 57.5078 161.789 57.3516 161.727 57.2109C161.664 57.0547 161.57 56.9297 161.445 56.8359C161.32 56.7422 161.141 56.6953 160.906 56.6953C160.625 56.6953 160.359 56.8047 160.109 57.0234C159.875 57.2266 159.664 57.4375 159.477 57.6562L158.891 57.1641C159.125 56.8359 159.414 56.4766 159.758 56.0859C160.117 55.6797 160.547 55.2969 161.047 54.9375C161.547 54.5781 162.117 54.2812 162.758 54.0469C163.414 53.7969 164.141 53.6719 164.938 53.6719C165.625 53.6719 166.227 53.7656 166.742 53.9531C167.258 54.125 167.688 54.3672 168.031 54.6797C168.375 54.9766 168.633 55.3359 168.805 55.7578C168.977 56.1641 169.062 56.6016 169.062 57.0703V72.7266C169.062 72.9453 169.094 73.1719 169.156 73.4062C169.234 73.625 169.336 73.8281 169.461 74.0156C169.602 74.2031 169.773 74.3594 169.977 74.4844C170.18 74.5938 170.422 74.6484 170.703 74.6484C171.156 74.6484 171.609 74.5312 172.062 74.2969C172.516 74.0625 172.93 73.7891 173.305 73.4766C173.68 73.1484 174 72.8281 174.266 72.5156C174.547 72.2031 174.75 71.9688 174.875 71.8125V58.125C174.875 57.9844 174.867 57.8359 174.852 57.6797C174.836 57.5078 174.797 57.3516 174.734 57.2109C174.672 57.0547 174.578 56.9297 174.453 56.8359C174.328 56.7422 174.148 56.6953 173.914 56.6953C173.633 56.6953 173.367 56.8047 173.117 57.0234C172.883 57.2266 172.672 57.4375 172.484 57.6562L171.898 57.1641C172.133 56.8359 172.422 56.4766 172.766 56.0859C173.125 55.6797 173.555 55.2969 174.055 54.9375C174.555 54.5781 175.125 54.2812 175.766 54.0469C176.422 53.7969 177.148 53.6719 177.945 53.6719C178.633 53.6719 179.234 53.7656 179.75 53.9531C180.266 54.125 180.695 54.3672 181.039 54.6797C181.383 54.9766 181.641 55.3359 181.812 55.7578C181.984 56.1641 182.07 56.6016 182.07 57.0703V73.9219ZM195.781 55.5469C195.422 55.5469 195.078 55.5938 194.75 55.6875C194.438 55.7812 194.156 55.9375 193.906 56.1562C193.656 56.3594 193.461 56.625 193.32 56.9531C193.18 57.2656 193.109 57.6406 193.109 58.0781C193.109 58.6875 193.328 59.2969 193.766 59.9062C194.219 60.5 194.773 61.125 195.43 61.7812C196.102 62.4219 196.82 63.0938 197.586 63.7969C198.367 64.4844 199.086 65.2188 199.742 66C200.414 66.7656 200.969 67.5859 201.406 68.4609C201.859 69.3359 202.086 70.2734 202.086 71.2734C202.086 72.3984 201.891 73.3984 201.5 74.2734C201.125 75.1484 200.578 75.8906 199.859 76.5C199.156 77.1094 198.297 77.5781 197.281 77.9062C196.281 78.2188 195.164 78.375 193.93 78.375C192.852 78.375 191.875 78.2266 191 77.9297C190.125 77.6172 189.344 77.2422 188.656 76.8047C187.984 76.3516 187.406 75.875 186.922 75.375C186.438 74.875 186.062 74.4219 185.797 74.0156L186.617 73.4297C186.82 73.6641 187.078 73.9219 187.391 74.2031C187.703 74.4688 188.047 74.7188 188.422 74.9531C188.812 75.1875 189.227 75.3828 189.664 75.5391C190.102 75.6797 190.547 75.75 191 75.75C192.125 75.75 193.047 75.4844 193.766 74.9531C194.484 74.4062 194.844 73.6016 194.844 72.5391C194.844 71.9453 194.648 71.3359 194.258 70.7109C193.867 70.0703 193.375 69.4141 192.781 68.7422C192.188 68.0703 191.547 67.375 190.859 66.6562C190.172 65.9375 189.531 65.1953 188.938 64.4297C188.344 63.6641 187.852 62.875 187.461 62.0625C187.07 61.25 186.875 60.4062 186.875 59.5312C186.875 58.5469 187.07 57.6875 187.461 56.9531C187.867 56.2188 188.398 55.6094 189.055 55.125C189.727 54.6406 190.484 54.2812 191.328 54.0469C192.188 53.7969 193.07 53.6719 193.977 53.6719C195.023 53.6719 195.977 53.7656 196.836 53.9531C197.695 54.1406 198.43 54.4297 199.039 54.8203C199.664 55.1953 200.141 55.6719 200.469 56.25C200.812 56.8281 200.984 57.5 200.984 58.2656C200.984 58.8594 200.789 59.375 200.398 59.8125C200.008 60.25 199.461 60.4688 198.758 60.4688C198.086 60.4688 197.57 60.3281 197.211 60.0469C196.867 59.75 196.695 59.3516 196.695 58.8516C196.695 58.5234 196.773 58.2656 196.93 58.0781C197.102 57.8906 197.289 57.7422 197.492 57.6328C197.695 57.5078 197.875 57.4062 198.031 57.3281C198.203 57.2344 198.289 57.1172 198.289 56.9766C198.289 56.5391 198.055 56.1953 197.586 55.9453C197.117 55.6797 196.516 55.5469 195.781 55.5469Z" fill="#333333"/>
<path d="M110.173 6C5.6545 6 2 65 2 65C2 65 15.1557 17.4937 110.173 17.4936C205.19 17.4935 222 65 222 65C222 65 214.691 6 110.173 6Z" fill="black" fill-opacity="0.25"/>
</svg>
