<svg width="223" height="113" viewBox="0 0 223 113" fill="none" xmlns="http://www.w3.org/2000/svg">
<path d="M19.966 103.182C19.966 103.735 19.9725 104.22 19.9855 104.637C20.0051 105.047 20.0246 105.402 20.0441 105.701C20.0702 106.001 20.0995 106.251 20.132 106.453C20.1711 106.655 20.2102 106.824 20.2492 106.961V107H17.9055V106.961C17.9445 106.824 17.9803 106.655 18.0129 106.453C18.052 106.251 18.0813 106.001 18.1008 105.701C18.1268 105.402 18.1464 105.047 18.1594 104.637C18.1789 104.227 18.1887 103.742 18.1887 103.182V96.8242C18.1887 96.2708 18.1789 95.7891 18.1594 95.3789C18.1464 94.9622 18.1268 94.6042 18.1008 94.3047C18.0813 94.0052 18.052 93.7546 18.0129 93.5527C17.9803 93.3444 17.9445 93.1719 17.9055 93.0352V92.9961L18.3156 93.0352C18.4393 93.0482 18.576 93.0579 18.7258 93.0645C18.882 93.0645 19.0415 93.0645 19.2043 93.0645C19.4582 93.0645 19.8 93.0352 20.2297 92.9766C20.6659 92.9115 21.2193 92.8789 21.8898 92.8789C22.5148 92.8789 23.091 92.9635 23.6184 93.1328C24.1522 93.3021 24.6145 93.5495 25.0051 93.875C25.3957 94.2005 25.6984 94.6009 25.9133 95.0762C26.1346 95.5449 26.2453 96.0788 26.2453 96.6777C26.2453 97.1465 26.1835 97.5827 26.0598 97.9863C25.9426 98.3835 25.7733 98.7448 25.552 99.0703C25.3371 99.3958 25.0767 99.6855 24.7707 99.9395C24.4647 100.187 24.1229 100.395 23.7453 100.564L27.173 105.379C27.3423 105.62 27.4986 105.828 27.6418 106.004C27.7915 106.18 27.9315 106.333 28.0617 106.463C28.1984 106.587 28.3286 106.691 28.4523 106.775C28.576 106.854 28.703 106.915 28.8332 106.961V107H26.0109C25.9914 106.876 25.9263 106.714 25.8156 106.512C25.7115 106.303 25.5878 106.098 25.4445 105.896L21.9875 101.023C21.8378 101.036 21.688 101.049 21.5383 101.062C21.3885 101.069 21.2355 101.072 21.0793 101.072C20.897 101.072 20.7115 101.066 20.5227 101.053C20.3404 101.04 20.1548 101.017 19.966 100.984V103.182ZM19.966 100.223C20.1418 100.262 20.3208 100.291 20.5031 100.311C20.6854 100.324 20.8612 100.33 21.0305 100.33C21.5188 100.33 21.9647 100.258 22.3684 100.115C22.772 99.9655 23.1138 99.7409 23.3938 99.4414C23.6802 99.1419 23.9016 98.7708 24.0578 98.3281C24.2141 97.8789 24.2922 97.3548 24.2922 96.7559C24.2922 96.2676 24.2369 95.8249 24.1262 95.4277C24.0155 95.0306 23.8495 94.6953 23.6281 94.4219C23.4133 94.1419 23.1398 93.9271 22.8078 93.7773C22.4758 93.6211 22.0884 93.543 21.6457 93.543C21.1965 93.543 20.8384 93.5658 20.5715 93.6113C20.3046 93.6569 20.1027 93.7057 19.966 93.7578V100.223ZM37.3219 92.9961C38.1357 92.9961 38.943 92.9928 39.7438 92.9863C40.551 92.9798 41.29 92.9733 41.9606 92.9668C42.6311 92.9538 43.204 92.9375 43.6793 92.918C44.1546 92.8984 44.4768 92.8724 44.6461 92.8398L44.1676 94.1387C43.9527 94.0801 43.7021 94.028 43.4156 93.9824C43.1682 93.9434 42.8655 93.9076 42.5074 93.875C42.1559 93.8359 41.749 93.8164 41.2867 93.8164C41.1305 93.8164 40.9417 93.8229 40.7203 93.8359C40.5055 93.8424 40.2971 93.8522 40.0953 93.8652C39.8609 93.8783 39.6233 93.8913 39.3824 93.9043V99.2363C40.053 99.2298 40.6585 99.2103 41.1988 99.1777C41.7392 99.1452 42.1982 99.1126 42.5758 99.0801C43.0185 99.041 43.4091 98.9954 43.7477 98.9434L43.4449 100.359C42.9957 100.301 42.5367 100.245 42.068 100.193C41.6643 100.148 41.2249 100.109 40.7496 100.076C40.2744 100.037 39.8186 100.018 39.3824 100.018V106.141C40.1507 106.141 40.857 106.108 41.5016 106.043C42.1461 105.978 42.7092 105.903 43.191 105.818C43.7509 105.727 44.262 105.62 44.7242 105.496L44.441 107.078C44.3629 107.072 44.2457 107.065 44.0895 107.059C43.9332 107.052 43.7574 107.046 43.5621 107.039C43.3733 107.033 43.1715 107.026 42.9566 107.02C42.7483 107.02 42.5497 107.016 42.3609 107.01C42.1721 107.01 42.0029 107.007 41.8531 107C41.7099 107 41.6057 107 41.5406 107H37.3219V106.961C37.3609 106.824 37.3967 106.655 37.4293 106.453C37.4684 106.251 37.5009 106.001 37.527 105.701C37.553 105.402 37.5725 105.047 37.5856 104.637C37.5986 104.22 37.6051 103.735 37.6051 103.182V96.8242C37.6051 96.2708 37.5986 95.7891 37.5856 95.3789C37.5725 94.9622 37.553 94.6042 37.527 94.3047C37.5009 93.9987 37.4684 93.7448 37.4293 93.543C37.3967 93.3411 37.3609 93.1719 37.3219 93.0352V92.9961ZM60.5664 95.2227H60.3516C60.2995 95.0729 60.2148 94.9036 60.0977 94.7148C59.987 94.526 59.8372 94.3503 59.6484 94.1875C59.4661 94.0182 59.2415 93.8783 58.9746 93.7676C58.7142 93.6569 58.405 93.6016 58.0469 93.6016C57.7279 93.6016 57.4447 93.6504 57.1973 93.748C56.9499 93.8457 56.7415 93.9824 56.5723 94.1582C56.4095 94.334 56.2858 94.5423 56.2012 94.7832C56.1165 95.0241 56.0742 95.291 56.0742 95.584C56.0742 96.0527 56.2044 96.502 56.4648 96.9316C56.7318 97.3548 57.0638 97.7747 57.4609 98.1914C57.8581 98.6081 58.2878 99.0247 58.75 99.4414C59.2122 99.8581 59.6419 100.291 60.0391 100.74C60.4362 101.189 60.765 101.661 61.0254 102.156C61.2923 102.645 61.4258 103.172 61.4258 103.738C61.4258 104.161 61.3509 104.588 61.2012 105.018C61.0579 105.441 60.8333 105.822 60.5273 106.16C60.2214 106.499 59.8275 106.775 59.3457 106.99C58.8639 107.199 58.291 107.303 57.627 107.303C57.2559 107.303 56.901 107.267 56.5625 107.195C56.2305 107.13 55.9212 107.049 55.6348 106.951C55.3548 106.847 55.1009 106.736 54.8731 106.619C54.6517 106.502 54.4694 106.395 54.3262 106.297L54.5508 104.139H54.7949C54.8665 104.445 54.9837 104.738 55.1465 105.018C55.3092 105.291 55.5078 105.535 55.7422 105.75C55.9831 105.958 56.2565 106.128 56.5625 106.258C56.8685 106.382 57.2038 106.443 57.5684 106.443C57.9004 106.443 58.1966 106.395 58.457 106.297C58.724 106.193 58.9518 106.053 59.1406 105.877C59.3294 105.695 59.4727 105.48 59.5703 105.232C59.6745 104.985 59.7266 104.715 59.7266 104.422C59.7266 104.012 59.6517 103.634 59.502 103.289C59.3522 102.938 59.1536 102.605 58.9063 102.293C58.6654 101.98 58.3887 101.678 58.0762 101.385C57.7702 101.092 57.4544 100.799 57.1289 100.506C56.8034 100.206 56.4844 99.9004 56.1719 99.5879C55.8659 99.2754 55.5892 98.9434 55.3418 98.5918C55.1009 98.2337 54.9056 97.8529 54.7559 97.4492C54.6061 97.0391 54.5313 96.5898 54.5313 96.1016C54.5313 95.5872 54.6289 95.125 54.8242 94.7148C55.026 94.2982 55.2897 93.9434 55.6152 93.6504C55.9473 93.3574 56.3216 93.1328 56.7383 92.9766C57.155 92.8203 57.5846 92.7422 58.0273 92.7422C58.3529 92.7422 58.6523 92.7682 58.9258 92.8203C59.1992 92.8724 59.4434 92.9342 59.6582 93.0059C59.8796 93.0775 60.0716 93.1491 60.2344 93.2207C60.3971 93.2923 60.5306 93.3509 60.6348 93.3965L60.5664 95.2227ZM75.1098 93.8555C74.3415 93.8555 73.6482 93.8913 73.0297 93.9629C72.4112 94.028 71.8773 94.0996 71.4281 94.1777C70.9073 94.2754 70.4418 94.3828 70.0316 94.5L70.3148 92.918C70.393 92.9245 70.5102 92.931 70.6664 92.9375C70.8227 92.944 70.9952 92.9505 71.184 92.957C71.3793 92.9635 71.5811 92.9701 71.7895 92.9766C72.0043 92.9766 72.2061 92.9798 72.3949 92.9863C72.5837 92.9863 72.7497 92.9896 72.893 92.9961C73.0427 92.9961 73.1501 92.9961 73.2152 92.9961H78.7914C78.8565 92.9961 78.9607 92.9961 79.1039 92.9961C79.2536 92.9896 79.4229 92.9863 79.6117 92.9863C79.8005 92.9798 79.9991 92.9766 80.2074 92.9766C80.4223 92.9701 80.6241 92.9635 80.8129 92.957C81.0082 92.9505 81.184 92.944 81.3402 92.9375C81.4965 92.931 81.6137 92.9245 81.6918 92.918L81.975 94.5C81.5583 94.3828 81.0896 94.2754 80.5688 94.1777C80.1195 94.0996 79.5857 94.028 78.9672 93.9629C78.3487 93.8913 77.6553 93.8555 76.8871 93.8555V103.182C76.8871 103.735 76.8936 104.22 76.9066 104.637C76.9262 105.047 76.9457 105.402 76.9652 105.701C76.9913 106.001 77.0206 106.251 77.0531 106.453C77.0922 106.655 77.1313 106.824 77.1703 106.961V107H74.8363V106.961C74.8754 106.824 74.9112 106.655 74.9438 106.453C74.9763 106.251 75.0056 106.001 75.0316 105.701C75.0577 105.402 75.0772 105.047 75.0902 104.637C75.1033 104.22 75.1098 103.735 75.1098 103.182V93.8555ZM99.6727 107V106.961C99.6857 106.928 99.6954 106.88 99.702 106.814C99.7085 106.749 99.7117 106.691 99.7117 106.639C99.7117 106.437 99.6824 106.215 99.6238 105.975C99.5717 105.727 99.4676 105.421 99.3113 105.057L98.1297 102.4C97.7651 102.387 97.2801 102.381 96.6746 102.381C96.0691 102.381 95.4148 102.381 94.7117 102.381C94.1974 102.381 93.6994 102.381 93.2176 102.381C92.7423 102.381 92.3126 102.387 91.9285 102.4L90.8055 104.979C90.7078 105.219 90.6037 105.483 90.493 105.77C90.3823 106.056 90.327 106.346 90.327 106.639C90.327 106.723 90.3335 106.795 90.3465 106.854C90.3595 106.906 90.3725 106.941 90.3856 106.961V107H88.3934V106.961C88.5106 106.837 88.657 106.619 88.8328 106.307C89.0086 105.988 89.2007 105.59 89.409 105.115L95.0047 92.7031H95.7859L101.089 104.637C101.212 104.917 101.339 105.19 101.47 105.457C101.606 105.717 101.733 105.952 101.85 106.16C101.968 106.368 102.072 106.544 102.163 106.688C102.254 106.831 102.316 106.922 102.348 106.961V107H99.6727ZM93.3445 101.541C93.7221 101.541 94.1095 101.541 94.5066 101.541C94.9038 101.535 95.2912 101.531 95.6688 101.531C96.0529 101.525 96.4207 101.521 96.7723 101.521C97.1238 101.515 97.4428 101.508 97.7293 101.502L94.9852 95.3008L92.2898 101.541H93.3445ZM121.179 96.8242C121.179 96.2708 121.172 95.7891 121.159 95.3789C121.146 94.9622 121.127 94.6042 121.101 94.3047C121.075 93.9987 121.045 93.7448 121.013 93.543C120.98 93.3411 120.945 93.1719 120.905 93.0352V92.9961H122.644V93.0352C122.605 93.1719 122.566 93.3411 122.527 93.543C122.494 93.7448 122.465 93.9987 122.439 94.3047C122.419 94.6042 122.4 94.9622 122.38 95.3789C122.367 95.7891 122.361 96.2708 122.361 96.8242V102.098C122.361 103.029 122.227 103.823 121.96 104.48C121.693 105.138 121.322 105.678 120.847 106.102C120.372 106.518 119.802 106.821 119.138 107.01C118.474 107.205 117.748 107.303 116.96 107.303C116.172 107.303 115.437 107.212 114.753 107.029C114.076 106.847 113.484 106.554 112.976 106.15C112.474 105.74 112.081 105.213 111.794 104.568C111.508 103.917 111.364 103.126 111.364 102.195V96.8242C111.364 96.2708 111.358 95.7891 111.345 95.3789C111.332 94.9622 111.312 94.6042 111.286 94.3047C111.26 93.9987 111.228 93.7448 111.189 93.543C111.156 93.3411 111.12 93.1719 111.081 93.0352V92.9961H113.425V93.0352C113.386 93.1719 113.347 93.3411 113.308 93.543C113.275 93.7448 113.246 93.9987 113.22 94.3047C113.194 94.6042 113.174 94.9622 113.161 95.3789C113.148 95.7891 113.142 96.2708 113.142 96.8242V102.303C113.142 103.077 113.256 103.719 113.484 104.227C113.718 104.728 114.024 105.128 114.402 105.428C114.779 105.721 115.209 105.926 115.691 106.043C116.172 106.16 116.664 106.219 117.165 106.219C117.667 106.219 118.158 106.16 118.64 106.043C119.122 105.926 119.548 105.721 119.919 105.428C120.297 105.128 120.599 104.728 120.827 104.227C121.062 103.719 121.179 103.077 121.179 102.303V96.8242ZM135.019 103.182C135.019 103.735 135.026 104.22 135.039 104.637C135.058 105.047 135.078 105.402 135.097 105.701C135.123 106.001 135.153 106.251 135.185 106.453C135.224 106.655 135.263 106.824 135.302 106.961V107H132.959V106.961C132.998 106.824 133.033 106.655 133.066 106.453C133.105 106.251 133.134 106.001 133.154 105.701C133.18 105.402 133.199 105.047 133.213 104.637C133.232 104.227 133.242 103.742 133.242 103.182V96.8242C133.242 96.2708 133.232 95.7891 133.213 95.3789C133.199 94.9622 133.18 94.6042 133.154 94.3047C133.134 94.0052 133.105 93.7546 133.066 93.5527C133.033 93.3444 132.998 93.1719 132.959 93.0352V92.9961L133.369 93.0352C133.492 93.0482 133.629 93.0579 133.779 93.0645C133.935 93.0645 134.095 93.0645 134.257 93.0645C134.511 93.0645 134.853 93.0352 135.283 92.9766C135.719 92.9115 136.272 92.8789 136.943 92.8789C137.568 92.8789 138.144 92.9635 138.671 93.1328C139.205 93.3021 139.668 93.5495 140.058 93.875C140.449 94.2005 140.752 94.6009 140.966 95.0762C141.188 95.5449 141.298 96.0788 141.298 96.6777C141.298 97.1465 141.237 97.5827 141.113 97.9863C140.996 98.3835 140.826 98.7448 140.605 99.0703C140.39 99.3958 140.13 99.6855 139.824 99.9395C139.518 100.187 139.176 100.395 138.798 100.564L142.226 105.379C142.395 105.62 142.552 105.828 142.695 106.004C142.845 106.18 142.985 106.333 143.115 106.463C143.252 106.587 143.382 106.691 143.505 106.775C143.629 106.854 143.756 106.915 143.886 106.961V107H141.064C141.045 106.876 140.979 106.714 140.869 106.512C140.765 106.303 140.641 106.098 140.498 105.896L137.041 101.023C136.891 101.036 136.741 101.049 136.591 101.062C136.442 101.069 136.289 101.072 136.132 101.072C135.95 101.072 135.765 101.066 135.576 101.053C135.393 101.04 135.208 101.017 135.019 100.984V103.182ZM135.019 100.223C135.195 100.262 135.374 100.291 135.556 100.311C135.739 100.324 135.914 100.33 136.084 100.33C136.572 100.33 137.018 100.258 137.421 100.115C137.825 99.9655 138.167 99.7409 138.447 99.4414C138.733 99.1419 138.955 98.7708 139.111 98.3281C139.267 97.8789 139.345 97.3548 139.345 96.7559C139.345 96.2676 139.29 95.8249 139.179 95.4277C139.069 95.0306 138.903 94.6953 138.681 94.4219C138.466 94.1419 138.193 93.9271 137.861 93.7773C137.529 93.6211 137.142 93.543 136.699 93.543C136.25 93.543 135.892 93.5658 135.625 93.6113C135.358 93.6569 135.156 93.7057 135.019 93.7578V100.223ZM162.062 107V106.961C162.076 106.928 162.085 106.88 162.092 106.814C162.098 106.749 162.102 106.691 162.102 106.639C162.102 106.437 162.072 106.215 162.014 105.975C161.962 105.727 161.857 105.421 161.701 105.057L160.52 102.4C160.155 102.387 159.67 102.381 159.064 102.381C158.459 102.381 157.805 102.381 157.102 102.381C156.587 102.381 156.089 102.381 155.607 102.381C155.132 102.381 154.702 102.387 154.318 102.4L153.195 104.979C153.098 105.219 152.993 105.483 152.883 105.77C152.772 106.056 152.717 106.346 152.717 106.639C152.717 106.723 152.723 106.795 152.736 106.854C152.749 106.906 152.762 106.941 152.775 106.961V107H150.783V106.961C150.9 106.837 151.047 106.619 151.223 106.307C151.398 105.988 151.59 105.59 151.799 105.115L157.395 92.7031H158.176L163.479 104.637C163.602 104.917 163.729 105.19 163.859 105.457C163.996 105.717 164.123 105.952 164.24 106.16C164.357 106.368 164.462 106.544 164.553 106.688C164.644 106.831 164.706 106.922 164.738 106.961V107H162.062ZM155.734 101.541C156.112 101.541 156.499 101.541 156.896 101.541C157.294 101.535 157.681 101.531 158.059 101.531C158.443 101.525 158.811 101.521 159.162 101.521C159.514 101.515 159.833 101.508 160.119 101.502L157.375 95.3008L154.68 101.541H155.734ZM174.096 92.9961L184.155 103.699V96.8242C184.155 96.2708 184.148 95.7891 184.135 95.3789C184.122 94.9622 184.103 94.6042 184.077 94.3047C184.051 93.9987 184.018 93.7448 183.979 93.543C183.946 93.3411 183.911 93.1719 183.871 93.0352V92.9961H185.61V93.0352C185.571 93.1719 185.535 93.3411 185.502 93.543C185.47 93.7448 185.441 93.9987 185.414 94.3047C185.388 94.6042 185.369 94.9622 185.356 95.3789C185.343 95.7891 185.336 96.2708 185.336 96.8242V107.195H184.995L174.936 96.502V103.182C174.936 103.735 174.942 104.22 174.955 104.637C174.968 105.047 174.988 105.402 175.014 105.701C175.04 106.001 175.069 106.251 175.102 106.453C175.135 106.655 175.17 106.824 175.209 106.961V107H173.471V106.961C173.51 106.824 173.546 106.655 173.579 106.453C173.618 106.251 173.65 106.001 173.676 105.701C173.702 105.402 173.722 105.047 173.735 104.637C173.748 104.22 173.754 103.735 173.754 103.182V96.8242C173.754 96.2708 173.748 95.7891 173.735 95.3789C173.722 94.9622 173.702 94.6042 173.676 94.3047C173.65 93.9987 173.618 93.7448 173.579 93.543C173.546 93.3411 173.51 93.1719 173.471 93.0352V92.9961H174.096ZM199.616 93.8555C198.848 93.8555 198.154 93.8913 197.536 93.9629C196.917 94.028 196.384 94.0996 195.934 94.1777C195.414 94.2754 194.948 94.3828 194.538 94.5L194.821 92.918C194.899 92.9245 195.016 92.931 195.173 92.9375C195.329 92.944 195.501 92.9505 195.69 92.957C195.886 92.9635 196.087 92.9701 196.296 92.9766C196.511 92.9766 196.712 92.9798 196.901 92.9863C197.09 92.9863 197.256 92.9896 197.399 92.9961C197.549 92.9961 197.656 92.9961 197.721 92.9961H203.298C203.363 92.9961 203.467 92.9961 203.61 92.9961C203.76 92.9896 203.929 92.9863 204.118 92.9863C204.307 92.9798 204.505 92.9766 204.714 92.9766C204.929 92.9701 205.13 92.9635 205.319 92.957C205.514 92.9505 205.69 92.944 205.846 92.9375C206.003 92.931 206.12 92.9245 206.198 92.918L206.481 94.5C206.065 94.3828 205.596 94.2754 205.075 94.1777C204.626 94.0996 204.092 94.028 203.473 93.9629C202.855 93.8913 202.162 93.8555 201.393 93.8555V103.182C201.393 103.735 201.4 104.22 201.413 104.637C201.432 105.047 201.452 105.402 201.471 105.701C201.498 106.001 201.527 106.251 201.559 106.453C201.598 106.655 201.637 106.824 201.677 106.961V107H199.343V106.961C199.382 106.824 199.417 106.655 199.45 106.453C199.483 106.251 199.512 106.001 199.538 105.701C199.564 105.402 199.583 105.047 199.596 104.637C199.61 104.22 199.616 103.735 199.616 103.182V93.8555Z" fill="#333333"/>
<path d="M46.8594 63.5625H43.4844V77.3203C43.4844 79.4453 43.125 81.2969 42.4062 82.875C41.6875 84.4688 40.6797 85.7891 39.3828 86.8359C38.1016 87.8984 36.5781 88.6875 34.8125 89.2031C33.0469 89.7344 31.125 90 29.0469 90C28.25 90 27.4844 89.9297 26.75 89.7891C26.0156 89.6641 25.3672 89.4844 24.8047 89.25C24.2422 89.0156 23.7891 88.7344 23.4453 88.4062C23.1172 88.0938 22.9531 87.7422 22.9531 87.3516C22.9531 87.0703 22.9922 86.7812 23.0703 86.4844C23.1484 86.2031 23.2656 85.9453 23.4219 85.7109C23.5781 85.4766 23.7656 85.2812 23.9844 85.125C24.2188 84.9844 24.4766 84.9141 24.7578 84.9141C24.9453 84.9141 25.1016 85 25.2266 85.1719C25.3516 85.3438 25.4844 85.5547 25.625 85.8047C25.7656 86.0547 25.9297 86.3281 26.1172 86.625C26.3047 86.9375 26.5391 87.2188 26.8203 87.4688C27.1016 87.7188 27.4453 87.9297 27.8516 88.1016C28.2578 88.2734 28.7656 88.3594 29.375 88.3594C30.5781 88.3594 31.6406 88.1406 32.5625 87.7031C33.4844 87.2656 34.25 86.6484 34.8594 85.8516C35.4844 85.0703 35.9531 84.125 36.2656 83.0156C36.5938 81.9219 36.7578 80.7109 36.7578 79.3828V77.9531C36.1016 78.0938 35.4375 78.1953 34.7656 78.2578C34.1094 78.3359 33.3672 78.375 32.5391 78.375C30.4141 78.375 28.4219 78.0547 26.5625 77.4141C24.7031 76.7578 23.0781 75.75 21.6875 74.3906C20.3125 73.0312 19.2266 71.2969 18.4297 69.1875C17.6328 67.0781 17.2344 64.5625 17.2344 61.6406C17.2344 59.6094 17.4531 57.7344 17.8906 56.0156C18.3281 54.2969 18.9375 52.75 19.7188 51.375C20.5 49.9844 21.4219 48.7656 22.4844 47.7188C23.5625 46.6719 24.7266 45.7969 25.9766 45.0938C27.2422 44.3906 28.5703 43.8594 29.9609 43.5C31.3672 43.1406 32.7891 42.9609 34.2266 42.9609C35.5859 42.9609 36.8516 43.0938 38.0234 43.3594C39.1953 43.6094 40.2109 43.9844 41.0703 44.4844C41.9453 44.9688 42.6328 45.5781 43.1328 46.3125C43.6328 47.0312 43.8828 47.8516 43.8828 48.7734C43.8828 49.1953 43.8047 49.6406 43.6484 50.1094C43.5078 50.5625 43.2969 50.9844 43.0156 51.375C42.7344 51.75 42.375 52.0625 41.9375 52.3125C41.5156 52.5469 41.0234 52.6641 40.4609 52.6641C39.7891 52.6641 39.2891 52.4766 38.9609 52.1016C38.6484 51.7109 38.4062 51.2344 38.2344 50.6719C38.0781 50.1094 37.9609 49.4922 37.8828 48.8203C37.8047 48.1484 37.6719 47.5312 37.4844 46.9688C37.2969 46.4062 37.0078 45.9375 36.6172 45.5625C36.2422 45.1719 35.6875 44.9766 34.9531 44.9766C34.4062 44.9766 33.7891 45.1094 33.1016 45.375C32.4141 45.6406 31.7188 46.0625 31.0156 46.6406C30.3125 47.2031 29.6172 47.9297 28.9297 48.8203C28.2578 49.6953 27.6562 50.75 27.125 51.9844C26.6094 53.2188 26.1875 54.6406 25.8594 56.25C25.5469 57.8438 25.3906 59.6406 25.3906 61.6406C25.3906 63.8594 25.5312 65.7578 25.8125 67.3359C26.0938 68.8984 26.4609 70.2109 26.9141 71.2734C27.3828 72.3203 27.9141 73.1562 28.5078 73.7812C29.1172 74.3906 29.7422 74.8516 30.3828 75.1641C31.0234 75.4766 31.6562 75.6797 32.2812 75.7734C32.9219 75.8516 33.5078 75.8906 34.0391 75.8906C34.5859 75.8906 35.0859 75.8516 35.5391 75.7734C35.9922 75.6797 36.3984 75.5547 36.7578 75.3984V63.5625H32.6328V61.4766H46.8594V63.5625ZM70.7422 73.9219C70.7422 74.0625 70.75 74.2188 70.7656 74.3906C70.7812 74.5469 70.8203 74.7031 70.8828 74.8594C70.9453 75 71.0391 75.1172 71.1641 75.2109C71.2891 75.3047 71.4688 75.3516 71.7031 75.3516C72 75.3516 72.2656 75.25 72.5 75.0469C72.7344 74.8281 72.9531 74.6094 73.1562 74.3906L73.7188 74.8828C73.4844 75.2109 73.1875 75.5781 72.8281 75.9844C72.4844 76.375 72.0625 76.75 71.5625 77.1094C71.0625 77.4688 70.4922 77.7656 69.8516 78C69.2109 78.25 68.4844 78.375 67.6719 78.375C66.9844 78.375 66.3828 78.2812 65.8672 78.0938C65.3672 77.9219 64.9375 77.6875 64.5781 77.3906C64.2344 77.0781 63.9766 76.7188 63.8047 76.3125C63.6328 75.8906 63.5469 75.4453 63.5469 74.9766V73.9219C62.7656 74.7656 61.9453 75.5078 61.0859 76.1484C60.7109 76.4297 60.3125 76.7031 59.8906 76.9688C59.4688 77.2344 59.0312 77.4766 58.5781 77.6953C58.125 77.8984 57.6562 78.0625 57.1719 78.1875C56.6875 78.3125 56.2031 78.375 55.7188 78.375C54.7812 78.375 53.9766 78.2109 53.3047 77.8828C52.6484 77.5391 52.1172 77.0938 51.7109 76.5469C51.3047 76 51.0078 75.3828 50.8203 74.6953C50.6328 74.0078 50.5391 73.3203 50.5391 72.6328V58.125C50.5391 57.9844 50.5312 57.8359 50.5156 57.6797C50.5 57.5078 50.4609 57.3516 50.3984 57.2109C50.3359 57.0547 50.2422 56.9297 50.1172 56.8359C49.9922 56.7422 49.8125 56.6953 49.5781 56.6953C49.2969 56.6953 49.0312 56.8047 48.7812 57.0234C48.5469 57.2266 48.3359 57.4375 48.1484 57.6562L47.5625 57.1641C47.7969 56.8359 48.0859 56.4766 48.4297 56.0859C48.7891 55.6797 49.2188 55.2969 49.7188 54.9375C50.2188 54.5781 50.7891 54.2812 51.4297 54.0469C52.0859 53.7969 52.8125 53.6719 53.6094 53.6719C54.2969 53.6719 54.8984 53.7656 55.4141 53.9531C55.9297 54.125 56.3594 54.3672 56.7031 54.6797C57.0469 54.9766 57.3047 55.3359 57.4766 55.7578C57.6484 56.1641 57.7344 56.6016 57.7344 57.0703V72.7266C57.7344 72.9453 57.7656 73.1719 57.8281 73.4062C57.9062 73.625 58.0078 73.8281 58.1328 74.0156C58.2734 74.2031 58.4453 74.3594 58.6484 74.4844C58.8516 74.5938 59.0938 74.6484 59.375 74.6484C59.8281 74.6484 60.2812 74.5312 60.7344 74.2969C61.1875 74.0625 61.6016 73.7891 61.9766 73.4766C62.3516 73.1484 62.6719 72.8281 62.9375 72.5156C63.2188 72.2031 63.4219 71.9688 63.5469 71.8125V58.125C63.5469 57.9844 63.5391 57.8359 63.5234 57.6797C63.5078 57.5078 63.4688 57.3516 63.4062 57.2109C63.3438 57.0547 63.25 56.9297 63.125 56.8359C63 56.7422 62.8203 56.6953 62.5859 56.6953C62.3047 56.6953 62.0391 56.8047 61.7891 57.0234C61.5547 57.2266 61.3438 57.4375 61.1562 57.6562L60.5703 57.1641C60.8047 56.8359 61.0938 56.4766 61.4375 56.0859C61.7969 55.6797 62.2266 55.2969 62.7266 54.9375C63.2266 54.5781 63.7969 54.2812 64.4375 54.0469C65.0938 53.7969 65.8203 53.6719 66.6172 53.6719C67.3047 53.6719 67.9062 53.7656 68.4219 53.9531C68.9375 54.125 69.3672 54.3672 69.7109 54.6797C70.0547 54.9766 70.3125 55.3359 70.4844 55.7578C70.6562 56.1641 70.7422 56.6016 70.7422 57.0703V73.9219ZM84.4531 55.5469C84.0938 55.5469 83.75 55.5938 83.4219 55.6875C83.1094 55.7812 82.8281 55.9375 82.5781 56.1562C82.3281 56.3594 82.1328 56.625 81.9922 56.9531C81.8516 57.2656 81.7812 57.6406 81.7812 58.0781C81.7812 58.6875 82 59.2969 82.4375 59.9062C82.8906 60.5 83.4453 61.125 84.1016 61.7812C84.7734 62.4219 85.4922 63.0938 86.2578 63.7969C87.0391 64.4844 87.7578 65.2188 88.4141 66C89.0859 66.7656 89.6406 67.5859 90.0781 68.4609C90.5312 69.3359 90.7578 70.2734 90.7578 71.2734C90.7578 72.3984 90.5625 73.3984 90.1719 74.2734C89.7969 75.1484 89.25 75.8906 88.5312 76.5C87.8281 77.1094 86.9688 77.5781 85.9531 77.9062C84.9531 78.2188 83.8359 78.375 82.6016 78.375C81.5234 78.375 80.5469 78.2266 79.6719 77.9297C78.7969 77.6172 78.0156 77.2422 77.3281 76.8047C76.6562 76.3516 76.0781 75.875 75.5938 75.375C75.1094 74.875 74.7344 74.4219 74.4688 74.0156L75.2891 73.4297C75.4922 73.6641 75.75 73.9219 76.0625 74.2031C76.375 74.4688 76.7188 74.7188 77.0938 74.9531C77.4844 75.1875 77.8984 75.3828 78.3359 75.5391C78.7734 75.6797 79.2188 75.75 79.6719 75.75C80.7969 75.75 81.7188 75.4844 82.4375 74.9531C83.1562 74.4062 83.5156 73.6016 83.5156 72.5391C83.5156 71.9453 83.3203 71.3359 82.9297 70.7109C82.5391 70.0703 82.0469 69.4141 81.4531 68.7422C80.8594 68.0703 80.2188 67.375 79.5312 66.6562C78.8438 65.9375 78.2031 65.1953 77.6094 64.4297C77.0156 63.6641 76.5234 62.875 76.1328 62.0625C75.7422 61.25 75.5469 60.4062 75.5469 59.5312C75.5469 58.5469 75.7422 57.6875 76.1328 56.9531C76.5391 56.2188 77.0703 55.6094 77.7266 55.125C78.3984 54.6406 79.1562 54.2812 80 54.0469C80.8594 53.7969 81.7422 53.6719 82.6484 53.6719C83.6953 53.6719 84.6484 53.7656 85.5078 53.9531C86.3672 54.1406 87.1016 54.4297 87.7109 54.8203C88.3359 55.1953 88.8125 55.6719 89.1406 56.25C89.4844 56.8281 89.6562 57.5 89.6562 58.2656C89.6562 58.8594 89.4609 59.375 89.0703 59.8125C88.6797 60.25 88.1328 60.4688 87.4297 60.4688C86.7578 60.4688 86.2422 60.3281 85.8828 60.0469C85.5391 59.75 85.3672 59.3516 85.3672 58.8516C85.3672 58.5234 85.4453 58.2656 85.6016 58.0781C85.7734 57.8906 85.9609 57.7422 86.1641 57.6328C86.3672 57.5078 86.5469 57.4062 86.7031 57.3281C86.875 57.2344 86.9609 57.1172 86.9609 56.9766C86.9609 56.5391 86.7266 56.1953 86.2578 55.9453C85.7891 55.6797 85.1875 55.5469 84.4531 55.5469ZM102.242 55.6875V73.0078C102.242 73.8359 102.398 74.4141 102.711 74.7422C103.023 75.0547 103.453 75.2109 104 75.2109C104.422 75.2109 104.797 75.0938 105.125 74.8594C105.453 74.625 105.734 74.3594 105.969 74.0625C106.25 73.7344 106.492 73.3516 106.695 72.9141L107.422 73.2422C107.188 73.7422 106.906 74.2891 106.578 74.8828C106.266 75.4766 105.844 76.0312 105.312 76.5469C104.781 77.0469 104.109 77.4688 103.297 77.8125C102.5 78.1562 101.492 78.3281 100.273 78.3281C99.5859 78.3281 98.9219 78.2266 98.2812 78.0234C97.6562 77.8203 97.0938 77.5 96.5938 77.0625C96.1094 76.625 95.7188 76.0781 95.4219 75.4219C95.125 74.7656 94.9766 73.9766 94.9766 73.0547V55.6875H92.3516V54C92.7891 54 93.3984 53.8906 94.1797 53.6719C94.9609 53.4375 95.7578 53.0547 96.5703 52.5234C97.3984 51.9922 98.1641 51.2812 98.8672 50.3906C99.5703 49.5 100.07 48.3984 100.367 47.0859H102.242V54H106.062C107.312 54 107.938 53.7891 107.938 53.3672C107.938 53.2109 107.859 53.1094 107.703 53.0625C107.547 53 107.367 52.9297 107.164 52.8516C106.977 52.7578 106.805 52.6328 106.648 52.4766C106.492 52.3203 106.414 52.0625 106.414 51.7031C106.414 51.2656 106.547 50.9219 106.812 50.6719C107.094 50.4219 107.453 50.2969 107.891 50.2969C108.172 50.2969 108.414 50.3594 108.617 50.4844C108.836 50.5938 109.016 50.75 109.156 50.9531C109.297 51.1406 109.398 51.3594 109.461 51.6094C109.539 51.8594 109.578 52.1094 109.578 52.3594C109.578 53.375 109.281 54.1875 108.688 54.7969C108.109 55.3906 107.172 55.6875 105.875 55.6875H102.242ZM116.398 67.2422C116.398 67.7422 116.469 68.2891 116.609 68.8828C116.766 69.4609 116.984 70.0469 117.266 70.6406C117.547 71.2344 117.891 71.8047 118.297 72.3516C118.719 72.8828 119.195 73.3594 119.727 73.7812C120.273 74.2031 120.875 74.5391 121.531 74.7891C122.188 75.0391 122.906 75.1641 123.688 75.1641C124.234 75.1641 124.742 75.1016 125.211 74.9766C125.68 74.8516 126.117 74.6797 126.523 74.4609C126.93 74.2422 127.32 73.9922 127.695 73.7109C128.07 73.4141 128.445 73.1016 128.82 72.7734L129.406 73.3359C129.047 73.8203 128.586 74.3516 128.023 74.9297C127.461 75.5078 126.781 76.0547 125.984 76.5703C125.188 77.0703 124.258 77.4922 123.195 77.8359C122.133 78.1641 120.922 78.3281 119.562 78.3281C118.203 78.3281 116.875 78.0859 115.578 77.6016C114.297 77.1016 113.156 76.3594 112.156 75.375C111.156 74.3906 110.352 73.1641 109.742 71.6953C109.148 70.2266 108.852 68.5078 108.852 66.5391C108.852 65.1172 109.031 63.8125 109.391 62.625C109.75 61.4375 110.234 60.3672 110.844 59.4141C111.469 58.4609 112.188 57.625 113 56.9062C113.828 56.1875 114.695 55.5938 115.602 55.125C116.508 54.6406 117.43 54.2812 118.367 54.0469C119.32 53.7969 120.234 53.6719 121.109 53.6719C122.266 53.6719 123.273 53.7969 124.133 54.0469C124.992 54.2969 125.703 54.6328 126.266 55.0547C126.844 55.4766 127.273 55.9688 127.555 56.5312C127.836 57.0781 127.977 57.6562 127.977 58.2656C127.977 59 127.766 59.6641 127.344 60.2578C126.922 60.8359 126.359 61.3438 125.656 61.7812L116.398 67.2422ZM121.109 62.4844C121.312 62.3594 121.477 62.2422 121.602 62.1328C121.742 62.0078 121.852 61.8672 121.93 61.7109C122.008 61.5391 122.062 61.3359 122.094 61.1016C122.141 60.8516 122.164 60.5469 122.164 60.1875C122.164 59.7969 122.117 59.3672 122.023 58.8984C121.945 58.4141 121.805 57.9609 121.602 57.5391C121.398 57.1172 121.141 56.7656 120.828 56.4844C120.516 56.2031 120.141 56.0625 119.703 56.0625C119.141 56.0625 118.656 56.2344 118.25 56.5781C117.859 56.9062 117.531 57.3359 117.266 57.8672C117.016 58.3984 116.812 59.0078 116.656 59.6953C116.516 60.3672 116.406 61.0469 116.328 61.7344C116.25 62.4219 116.203 63.0859 116.188 63.7266C116.172 64.3516 116.164 64.8828 116.164 65.3203L121.109 62.4844ZM143.117 65.8594C143.117 65.4688 142.992 65.1719 142.742 64.9688C142.492 64.7656 142.172 64.6641 141.781 64.6641C141.234 64.6641 140.711 64.7891 140.211 65.0391C139.727 65.2891 139.297 65.6562 138.922 66.1406C138.547 66.625 138.25 67.2266 138.031 67.9453C137.812 68.6484 137.703 69.4688 137.703 70.4062C137.703 71.3125 137.766 72.0625 137.891 72.6562C138.031 73.25 138.211 73.7266 138.43 74.0859C138.664 74.4297 138.93 74.6719 139.227 74.8125C139.523 74.9531 139.836 75.0234 140.164 75.0234C140.57 75.0234 140.953 74.9219 141.312 74.7188C141.672 74.5 141.984 74.2266 142.25 73.8984C142.516 73.5703 142.727 73.2031 142.883 72.7969C143.039 72.3906 143.117 71.9844 143.117 71.5781V65.8594ZM139.391 55.5938C138.859 55.5938 138.367 55.6562 137.914 55.7812C137.461 55.9062 137.07 56.0625 136.742 56.25C136.414 56.4375 136.156 56.6484 135.969 56.8828C135.781 57.1016 135.688 57.3125 135.688 57.5156C135.688 57.75 135.805 57.9219 136.039 58.0312C136.289 58.125 136.562 58.2422 136.859 58.3828C137.156 58.5078 137.422 58.6953 137.656 58.9453C137.906 59.1797 138.031 59.5469 138.031 60.0469C138.031 60.375 137.961 60.6797 137.82 60.9609C137.695 61.2266 137.516 61.4688 137.281 61.6875C137.062 61.8906 136.797 62.0547 136.484 62.1797C136.188 62.2891 135.875 62.3438 135.547 62.3438C134.672 62.3438 133.961 62.0469 133.414 61.4531C132.883 60.8594 132.617 60.0703 132.617 59.0859C132.617 58.1328 132.867 57.3203 133.367 56.6484C133.867 55.9609 134.516 55.3984 135.312 54.9609C136.125 54.5234 137.039 54.2031 138.055 54C139.07 53.7812 140.086 53.6719 141.102 53.6719C142.32 53.6719 143.484 53.8047 144.594 54.0703C145.703 54.3359 146.68 54.7578 147.523 55.3359C148.383 55.9141 149.062 56.6484 149.562 57.5391C150.078 58.4297 150.336 59.5078 150.336 60.7734V74.0156C150.336 74.1562 150.344 74.3125 150.359 74.4844C150.375 74.6562 150.414 74.8125 150.477 74.9531C150.539 75.0938 150.633 75.2109 150.758 75.3047C150.883 75.3984 151.062 75.4453 151.297 75.4453C151.578 75.4453 151.836 75.3438 152.07 75.1406C152.32 74.9219 152.539 74.7031 152.727 74.4844L153.312 74.9766C153.078 75.3047 152.797 75.6641 152.469 76.0547C152.141 76.4453 151.742 76.8125 151.273 77.1562C150.805 77.5 150.258 77.7891 149.633 78.0234C149.008 78.2578 148.297 78.375 147.5 78.375C146.516 78.375 145.641 78.0859 144.875 77.5078C144.109 76.9141 143.609 76.0078 143.375 74.7891C142.875 75.4609 142.352 76.0234 141.805 76.4766C141.273 76.9297 140.727 77.2969 140.164 77.5781C139.602 77.8594 139.031 78.0625 138.453 78.1875C137.891 78.3125 137.32 78.375 136.742 78.375C135.992 78.375 135.266 78.2578 134.562 78.0234C133.859 77.7891 133.227 77.4219 132.664 76.9219C132.117 76.4062 131.672 75.7422 131.328 74.9297C131 74.1172 130.836 73.125 130.836 71.9531C130.836 70.5312 131.117 69.3672 131.68 68.4609C132.242 67.5547 132.977 66.7969 133.883 66.1875C134.805 65.5625 135.844 65.0312 137 64.5938C138.172 64.1562 139.367 63.6953 140.586 63.2109C141.492 62.8516 142.148 62.3203 142.555 61.6172C142.977 60.8984 143.188 60.1641 143.188 59.4141C143.188 58.2578 142.844 57.3359 142.156 56.6484C141.484 55.9453 140.562 55.5938 139.391 55.5938ZM176.961 73.9219C176.961 74.0625 176.969 74.2188 176.984 74.3906C177 74.5469 177.039 74.7031 177.102 74.8594C177.164 75 177.258 75.1172 177.383 75.2109C177.508 75.3047 177.688 75.3516 177.922 75.3516C178.219 75.3516 178.484 75.25 178.719 75.0469C178.953 74.8281 179.172 74.6094 179.375 74.3906L179.938 74.8828C179.703 75.2109 179.406 75.5781 179.047 75.9844C178.703 76.375 178.281 76.75 177.781 77.1094C177.281 77.4688 176.711 77.7656 176.07 78C175.43 78.25 174.703 78.375 173.891 78.375C173.203 78.375 172.602 78.2812 172.086 78.0938C171.586 77.9219 171.156 77.6875 170.797 77.3906C170.453 77.0781 170.195 76.7188 170.023 76.3125C169.852 75.8906 169.766 75.4453 169.766 74.9766V73.9219C168.984 74.7656 168.164 75.5078 167.305 76.1484C166.93 76.4297 166.531 76.7031 166.109 76.9688C165.688 77.2344 165.25 77.4766 164.797 77.6953C164.344 77.8984 163.875 78.0625 163.391 78.1875C162.906 78.3125 162.422 78.375 161.938 78.375C161 78.375 160.195 78.2109 159.523 77.8828C158.867 77.5391 158.336 77.0938 157.93 76.5469C157.523 76 157.227 75.3828 157.039 74.6953C156.852 74.0078 156.758 73.3203 156.758 72.6328V58.125C156.758 57.9844 156.75 57.8359 156.734 57.6797C156.719 57.5078 156.68 57.3516 156.617 57.2109C156.555 57.0547 156.461 56.9297 156.336 56.8359C156.211 56.7422 156.031 56.6953 155.797 56.6953C155.516 56.6953 155.25 56.8047 155 57.0234C154.766 57.2266 154.555 57.4375 154.367 57.6562L153.781 57.1641C154.016 56.8359 154.305 56.4766 154.648 56.0859C155.008 55.6797 155.438 55.2969 155.938 54.9375C156.438 54.5781 157.008 54.2812 157.648 54.0469C158.305 53.7969 159.031 53.6719 159.828 53.6719C160.516 53.6719 161.117 53.7656 161.633 53.9531C162.148 54.125 162.578 54.3672 162.922 54.6797C163.266 54.9766 163.523 55.3359 163.695 55.7578C163.867 56.1641 163.953 56.6016 163.953 57.0703V72.7266C163.953 72.9453 163.984 73.1719 164.047 73.4062C164.125 73.625 164.227 73.8281 164.352 74.0156C164.492 74.2031 164.664 74.3594 164.867 74.4844C165.07 74.5938 165.312 74.6484 165.594 74.6484C166.047 74.6484 166.5 74.5312 166.953 74.2969C167.406 74.0625 167.82 73.7891 168.195 73.4766C168.57 73.1484 168.891 72.8281 169.156 72.5156C169.438 72.2031 169.641 71.9688 169.766 71.8125V58.125C169.766 57.9844 169.758 57.8359 169.742 57.6797C169.727 57.5078 169.688 57.3516 169.625 57.2109C169.562 57.0547 169.469 56.9297 169.344 56.8359C169.219 56.7422 169.039 56.6953 168.805 56.6953C168.523 56.6953 168.258 56.8047 168.008 57.0234C167.773 57.2266 167.562 57.4375 167.375 57.6562L166.789 57.1641C167.023 56.8359 167.312 56.4766 167.656 56.0859C168.016 55.6797 168.445 55.2969 168.945 54.9375C169.445 54.5781 170.016 54.2812 170.656 54.0469C171.312 53.7969 172.039 53.6719 172.836 53.6719C173.523 53.6719 174.125 53.7656 174.641 53.9531C175.156 54.125 175.586 54.3672 175.93 54.6797C176.273 54.9766 176.531 55.3359 176.703 55.7578C176.875 56.1641 176.961 56.6016 176.961 57.0703V73.9219ZM181.18 54.2812C182.148 53.625 182.812 52.9297 183.172 52.1953C183.547 51.4453 183.734 50.7344 183.734 50.0625C183.734 49.3438 183.531 48.7109 183.125 48.1641C182.734 47.6016 182.297 47.1172 181.812 46.7109C181.578 46.4766 181.461 46.2188 181.461 45.9375C181.461 45.6094 181.57 45.2734 181.789 44.9297C182.008 44.5859 182.297 44.2656 182.656 43.9688C183.016 43.6719 183.43 43.4297 183.898 43.2422C184.383 43.0547 184.883 42.9609 185.398 42.9609C185.883 42.9609 186.297 43.0859 186.641 43.3359C186.984 43.5859 187.258 43.8906 187.461 44.25C187.664 44.6094 187.812 44.9922 187.906 45.3984C188 45.7891 188.047 46.1406 188.047 46.4531C188.047 47.375 187.883 48.25 187.555 49.0781C187.227 49.9062 186.781 50.6875 186.219 51.4219C185.656 52.1562 185 52.8359 184.25 53.4609C183.516 54.0703 182.734 54.6172 181.906 55.1016L181.18 54.2812ZM199.953 55.5469C199.594 55.5469 199.25 55.5938 198.922 55.6875C198.609 55.7812 198.328 55.9375 198.078 56.1562C197.828 56.3594 197.633 56.625 197.492 56.9531C197.352 57.2656 197.281 57.6406 197.281 58.0781C197.281 58.6875 197.5 59.2969 197.938 59.9062C198.391 60.5 198.945 61.125 199.602 61.7812C200.273 62.4219 200.992 63.0938 201.758 63.7969C202.539 64.4844 203.258 65.2188 203.914 66C204.586 66.7656 205.141 67.5859 205.578 68.4609C206.031 69.3359 206.258 70.2734 206.258 71.2734C206.258 72.3984 206.062 73.3984 205.672 74.2734C205.297 75.1484 204.75 75.8906 204.031 76.5C203.328 77.1094 202.469 77.5781 201.453 77.9062C200.453 78.2188 199.336 78.375 198.102 78.375C197.023 78.375 196.047 78.2266 195.172 77.9297C194.297 77.6172 193.516 77.2422 192.828 76.8047C192.156 76.3516 191.578 75.875 191.094 75.375C190.609 74.875 190.234 74.4219 189.969 74.0156L190.789 73.4297C190.992 73.6641 191.25 73.9219 191.562 74.2031C191.875 74.4688 192.219 74.7188 192.594 74.9531C192.984 75.1875 193.398 75.3828 193.836 75.5391C194.273 75.6797 194.719 75.75 195.172 75.75C196.297 75.75 197.219 75.4844 197.938 74.9531C198.656 74.4062 199.016 73.6016 199.016 72.5391C199.016 71.9453 198.82 71.3359 198.43 70.7109C198.039 70.0703 197.547 69.4141 196.953 68.7422C196.359 68.0703 195.719 67.375 195.031 66.6562C194.344 65.9375 193.703 65.1953 193.109 64.4297C192.516 63.6641 192.023 62.875 191.633 62.0625C191.242 61.25 191.047 60.4062 191.047 59.5312C191.047 58.5469 191.242 57.6875 191.633 56.9531C192.039 56.2188 192.57 55.6094 193.227 55.125C193.898 54.6406 194.656 54.2812 195.5 54.0469C196.359 53.7969 197.242 53.6719 198.148 53.6719C199.195 53.6719 200.148 53.7656 201.008 53.9531C201.867 54.1406 202.602 54.4297 203.211 54.8203C203.836 55.1953 204.312 55.6719 204.641 56.25C204.984 56.8281 205.156 57.5 205.156 58.2656C205.156 58.8594 204.961 59.375 204.57 59.8125C204.18 60.25 203.633 60.4688 202.93 60.4688C202.258 60.4688 201.742 60.3281 201.383 60.0469C201.039 59.75 200.867 59.3516 200.867 58.8516C200.867 58.5234 200.945 58.2656 201.102 58.0781C201.273 57.8906 201.461 57.7422 201.664 57.6328C201.867 57.5078 202.047 57.4062 202.203 57.3281C202.375 57.2344 202.461 57.1172 202.461 56.9766C202.461 56.5391 202.227 56.1953 201.758 55.9453C201.289 55.6797 200.688 55.5469 199.953 55.5469Z" fill="#333333"/>
<path d="M110.173 6C5.6545 6 2 65 2 65C2 65 15.1557 17.4937 110.173 17.4936C205.19 17.4935 222 65 222 65C222 65 214.691 6 110.173 6Z" fill="black" fill-opacity="0.25"/>
</svg>
