<svg width="223" height="113" viewBox="0 0 223 113" fill="none" xmlns="http://www.w3.org/2000/svg">
<g filter="url(#filter0_d_141_303)">
<path d="M223 62C223 48.474 211.253 35.5019 190.342 25.9376C169.432 16.3732 141.072 11 111.5 11C81.9284 11 53.5679 16.3732 32.6576 25.9376C11.7473 35.5019 4.46519e-06 48.474 0 62L111.5 62H223Z" fill="white" fill-opacity="0.01" shape-rendering="crispEdges"/>
</g>
<path d="M74.4453 69.6094L66.0078 52.8047L65.7031 58.4531C65.6094 60.0938 65.5234 61.7266 65.4453 63.3516C65.3828 64.9609 65.2578 66.5 65.0703 67.9688C64.8828 69.4219 64.5859 70.7734 64.1797 72.0234C63.7891 73.2734 63.2109 74.3594 62.4453 75.2812C61.6953 76.1875 60.7109 76.8984 59.4922 77.4141C58.2891 77.9297 56.7812 78.1875 54.9688 78.1875C54.1719 78.1875 53.4062 78.125 52.6719 78C51.9375 77.8594 51.2891 77.6719 50.7266 77.4375C50.1641 77.2031 49.7188 76.9297 49.3906 76.6172C49.0469 76.2891 48.875 75.9375 48.875 75.5625C48.875 75.2812 48.9141 75 48.9922 74.7188C49.0703 74.4219 49.1875 74.1562 49.3438 73.9219C49.5 73.6719 49.6953 73.4766 49.9297 73.3359C50.1484 73.1797 50.3984 73.1016 50.6797 73.1016C50.8516 73.1016 51 73.1875 51.125 73.3594C51.2656 73.5312 51.4062 73.75 51.5469 74.0156C51.6875 74.2656 51.8438 74.5391 52.0156 74.8359C52.2031 75.1328 52.4375 75.4141 52.7188 75.6797C53.0156 75.9297 53.3672 76.1406 53.7734 76.3125C54.1797 76.4844 54.6875 76.5703 55.2969 76.5703C56.5 76.5703 57.5078 76.3672 58.3203 75.9609C59.1484 75.5391 59.8281 74.9375 60.3594 74.1562C60.8906 73.375 61.2969 72.4297 61.5781 71.3203C61.8594 70.2109 62.0703 68.9531 62.2109 67.5469C62.2734 66.7656 62.3359 66.0156 62.3984 65.2969C62.4609 64.5625 62.5234 63.8359 62.5859 63.1172C62.6484 62.3984 62.7031 61.6719 62.75 60.9375C62.8125 60.1875 62.875 59.3984 62.9375 58.5703C63.0156 57.3672 63.0859 56.2266 63.1484 55.1484C63.2109 54.0547 63.2578 53.0391 63.2891 52.1016C63.3359 51.1641 63.3672 50.3203 63.3828 49.5703C63.4141 48.8203 63.4375 48.1719 63.4531 47.625C63.1875 47.0781 62.9531 46.6406 62.75 46.3125C62.5469 45.9688 62.3359 45.7109 62.1172 45.5391C61.8984 45.3516 61.6562 45.2266 61.3906 45.1641C61.125 45.1016 60.8047 45.0703 60.4297 45.0703C60.1172 45.0703 59.7266 45.1328 59.2578 45.2578C58.8047 45.3672 58.3281 45.5312 57.8281 45.75C57.3438 45.9688 56.8516 46.2422 56.3516 46.5703C55.8672 46.8828 55.4297 47.25 55.0391 47.6719C54.6641 48.0781 54.3516 48.5312 54.1016 49.0312C53.8672 49.5312 53.75 50.0703 53.75 50.6484C53.75 51.1484 53.8125 51.5469 53.9375 51.8438C54.0781 52.1406 54.2344 52.3672 54.4062 52.5234C54.5938 52.6641 54.7734 52.7578 54.9453 52.8047C55.1328 52.8359 55.2656 52.8516 55.3438 52.8516C55.7344 52.8516 56.0547 52.7891 56.3047 52.6641C56.5547 52.5234 56.7812 52.3828 56.9844 52.2422C57.1875 52.0859 57.375 51.9453 57.5469 51.8203C57.7344 51.6797 57.9453 51.6094 58.1797 51.6094C58.3672 51.6094 58.5625 51.6562 58.7656 51.75C58.9844 51.8281 59.1797 51.9609 59.3516 52.1484C59.5391 52.3359 59.6953 52.5859 59.8203 52.8984C59.9453 53.1953 60.0078 53.5625 60.0078 54C60.0078 54.625 59.8828 55.1641 59.6328 55.6172C59.3984 56.0703 59.0859 56.4531 58.6953 56.7656C58.3203 57.0625 57.8828 57.2891 57.3828 57.4453C56.8984 57.5859 56.4141 57.6562 55.9297 57.6562C55.1797 57.6562 54.5 57.5312 53.8906 57.2812C53.2969 57.0156 52.7891 56.6562 52.3672 56.2031C51.9453 55.75 51.625 55.2188 51.4062 54.6094C51.1875 54 51.0781 53.3516 51.0781 52.6641C51.0781 51.0391 51.4531 49.625 52.2031 48.4219C52.9531 47.2031 53.9375 46.1875 55.1562 45.375C56.375 44.5625 57.75 43.9609 59.2812 43.5703C60.8281 43.1641 62.3984 42.9609 63.9922 42.9609C65.2734 42.9609 66.3438 43.0938 67.2031 43.3594C68.0625 43.6094 68.7812 43.9531 69.3594 44.3906C69.9375 44.8125 70.4141 45.3125 70.7891 45.8906C71.1641 46.4688 71.5078 47.0781 71.8203 47.7188L78.0078 60.2812C79.6172 57.1094 81.0781 54.2734 82.3906 51.7734C83.7188 49.2578 84.9453 47.0469 86.0703 45.1406C87.1953 43.2344 88.2422 41.6094 89.2109 40.2656C90.1953 38.9219 91.1406 37.8281 92.0469 36.9844C92.9688 36.125 93.875 35.5 94.7656 35.1094C95.6719 34.7188 96.6094 34.5234 97.5781 34.5234C98.4062 34.5234 99.0781 34.7031 99.5938 35.0625C100.109 35.4062 100.367 35.9297 100.367 36.6328C100.367 37.2578 100.266 37.7734 100.062 38.1797C99.8594 38.5859 99.5781 38.7891 99.2188 38.7891C98.9219 38.7891 98.6953 38.6797 98.5391 38.4609C98.3828 38.2266 98.2266 37.9766 98.0703 37.7109C97.9297 37.4453 97.75 37.2031 97.5312 36.9844C97.3125 36.75 96.9922 36.6328 96.5703 36.6328C96.3203 36.6328 96.0156 36.7031 95.6562 36.8438C95.2969 36.9844 94.9219 37.1953 94.5312 37.4766C94.1562 37.7578 93.7812 38.1094 93.4062 38.5312C93.0312 38.9531 92.7031 39.4453 92.4219 40.0078C92.1406 40.5703 91.9219 41.2109 91.7656 41.9297C91.6094 42.6484 91.5625 43.4375 91.625 44.2969C91.6875 45.2812 91.7734 46.4375 91.8828 47.7656C91.9922 49.0781 92.1094 50.4922 92.2344 52.0078C92.375 53.5078 92.5156 55.0625 92.6562 56.6719C92.8125 58.2812 92.9688 59.8672 93.125 61.4297C93.2812 62.9922 93.4297 64.4922 93.5703 65.9297C93.7266 67.3672 93.8672 68.6719 93.9922 69.8438C94.1172 71 94.2344 71.9844 94.3438 72.7969C94.4531 73.5938 94.5391 74.1406 94.6016 74.4375C94.6953 74.8906 94.8203 75.2578 94.9766 75.5391C95.1328 75.8047 95.4141 75.9375 95.8203 75.9375C96.2422 75.9375 96.6406 75.8672 97.0156 75.7266C97.3906 75.5703 97.7266 75.4141 98.0234 75.2578L98.3984 76.125C98.1172 76.3281 97.7578 76.5625 97.3203 76.8281C96.8984 77.0781 96.4062 77.3203 95.8438 77.5547C95.2969 77.7891 94.6875 77.9844 94.0156 78.1406C93.3594 78.2969 92.6484 78.375 91.8828 78.375C90.8047 78.375 89.9531 78.2422 89.3281 77.9766C88.7031 77.6953 88.2188 77.3594 87.875 76.9688C87.5469 76.5625 87.3203 76.1406 87.1953 75.7031C87.0859 75.25 87 74.8438 86.9375 74.4844C86.7969 73.6875 86.6484 72.7266 86.4922 71.6016C86.3359 70.4766 86.1797 69.2734 86.0234 67.9922C85.8828 66.6953 85.7422 65.3672 85.6016 64.0078C85.4609 62.6328 85.3281 61.2969 85.2031 60C85.0938 58.6875 84.9922 57.4531 84.8984 56.2969C84.8047 55.1406 84.7266 54.1328 84.6641 53.2734C84.1953 54.0391 83.7578 54.7812 83.3516 55.5C82.9609 56.2031 82.5781 56.9297 82.2031 57.6797C81.8281 58.4141 81.4453 59.1875 81.0547 60C80.6641 60.8125 80.25 61.6953 79.8125 62.6484C79.3906 63.6016 78.9219 64.6484 78.4062 65.7891C77.9062 66.9297 77.3516 68.2031 76.7422 69.6094H74.4453ZM106.953 67.2422C106.953 67.7422 107.023 68.2891 107.164 68.8828C107.32 69.4609 107.539 70.0469 107.82 70.6406C108.102 71.2344 108.445 71.8047 108.852 72.3516C109.273 72.8828 109.75 73.3594 110.281 73.7812C110.828 74.2031 111.43 74.5391 112.086 74.7891C112.742 75.0391 113.461 75.1641 114.242 75.1641C114.789 75.1641 115.297 75.1016 115.766 74.9766C116.234 74.8516 116.672 74.6797 117.078 74.4609C117.484 74.2422 117.875 73.9922 118.25 73.7109C118.625 73.4141 119 73.1016 119.375 72.7734L119.961 73.3359C119.602 73.8203 119.141 74.3516 118.578 74.9297C118.016 75.5078 117.336 76.0547 116.539 76.5703C115.742 77.0703 114.812 77.4922 113.75 77.8359C112.688 78.1641 111.477 78.3281 110.117 78.3281C108.758 78.3281 107.43 78.0859 106.133 77.6016C104.852 77.1016 103.711 76.3594 102.711 75.375C101.711 74.3906 100.906 73.1641 100.297 71.6953C99.7031 70.2266 99.4062 68.5078 99.4062 66.5391C99.4062 65.1172 99.5859 63.8125 99.9453 62.625C100.305 61.4375 100.789 60.3672 101.398 59.4141C102.023 58.4609 102.742 57.625 103.555 56.9062C104.383 56.1875 105.25 55.5938 106.156 55.125C107.062 54.6406 107.984 54.2812 108.922 54.0469C109.875 53.7969 110.789 53.6719 111.664 53.6719C112.82 53.6719 113.828 53.7969 114.688 54.0469C115.547 54.2969 116.258 54.6328 116.82 55.0547C117.398 55.4766 117.828 55.9688 118.109 56.5312C118.391 57.0781 118.531 57.6562 118.531 58.2656C118.531 59 118.32 59.6641 117.898 60.2578C117.477 60.8359 116.914 61.3438 116.211 61.7812L106.953 67.2422ZM111.664 62.4844C111.867 62.3594 112.031 62.2422 112.156 62.1328C112.297 62.0078 112.406 61.8672 112.484 61.7109C112.562 61.5391 112.617 61.3359 112.648 61.1016C112.695 60.8516 112.719 60.5469 112.719 60.1875C112.719 59.7969 112.672 59.3672 112.578 58.8984C112.5 58.4141 112.359 57.9609 112.156 57.5391C111.953 57.1172 111.695 56.7656 111.383 56.4844C111.07 56.2031 110.695 56.0625 110.258 56.0625C109.695 56.0625 109.211 56.2344 108.805 56.5781C108.414 56.9062 108.086 57.3359 107.82 57.8672C107.57 58.3984 107.367 59.0078 107.211 59.6953C107.07 60.3672 106.961 61.0469 106.883 61.7344C106.805 62.4219 106.758 63.0859 106.742 63.7266C106.727 64.3516 106.719 64.8828 106.719 65.3203L111.664 62.4844ZM136.906 66.3281C136.906 64.3594 136.812 62.7891 136.625 61.6172C136.453 60.4297 136.219 59.5312 135.922 58.9219C135.625 58.2969 135.297 57.8906 134.938 57.7031C134.578 57.5 134.211 57.3984 133.836 57.3984C133.383 57.3984 132.977 57.5234 132.617 57.7734C132.273 58.0078 131.969 58.2812 131.703 58.5938C131.453 58.9062 131.234 59.2188 131.047 59.5312C130.875 59.8438 130.727 60.0781 130.602 60.2344V75.8906C130.602 76.0938 130.57 76.3438 130.508 76.6406C130.445 76.9219 130.289 77.1953 130.039 77.4609C129.805 77.7109 129.445 77.9219 128.961 78.0938C128.492 78.2812 127.844 78.375 127.016 78.375C126.188 78.375 125.531 78.2734 125.047 78.0703C124.578 77.8828 124.219 77.6562 123.969 77.3906C123.719 77.125 123.562 76.8516 123.5 76.5703C123.438 76.2891 123.406 76.0625 123.406 75.8906V57.7969C123.406 57.3438 123.297 56.9531 123.078 56.625C122.875 56.2812 122.523 56.1094 122.023 56.1094C121.758 56.1094 121.531 56.1562 121.344 56.25C121.156 56.3438 120.953 56.4766 120.734 56.6484L120.242 56.0625C120.602 55.7656 121 55.4766 121.438 55.1953C121.891 54.8984 122.375 54.6406 122.891 54.4219C123.406 54.2031 123.961 54.0234 124.555 53.8828C125.148 53.7422 125.773 53.6719 126.43 53.6719C127.445 53.6719 128.234 53.8438 128.797 54.1875C129.359 54.5156 129.773 54.9141 130.039 55.3828C130.305 55.8516 130.461 56.3438 130.508 56.8594C130.57 57.3594 130.602 57.7812 130.602 58.125C131.18 57.2969 131.836 56.5547 132.57 55.8984C132.867 55.6172 133.195 55.3438 133.555 55.0781C133.93 54.8125 134.32 54.5781 134.727 54.375C135.148 54.1562 135.586 53.9844 136.039 53.8594C136.508 53.7344 136.984 53.6719 137.469 53.6719C138.531 53.6719 139.469 53.875 140.281 54.2812C141.109 54.6875 141.805 55.3672 142.367 56.3203C142.93 57.2734 143.359 58.5391 143.656 60.1172C143.953 61.6797 144.102 63.625 144.102 65.9531C144.102 68.2188 143.898 70.1875 143.492 71.8594C143.086 73.5312 142.555 74.9531 141.898 76.125C141.242 77.2969 140.5 78.25 139.672 78.9844C138.844 79.7344 138.008 80.3203 137.164 80.7422C136.32 81.1641 135.508 81.4531 134.727 81.6094C133.961 81.7812 133.297 81.875 132.734 81.8906L132.477 80.9297C132.945 80.8203 133.375 80.6484 133.766 80.4141C134.172 80.1797 134.539 79.8359 134.867 79.3828C135.195 78.9297 135.484 78.3594 135.734 77.6719C135.984 76.9688 136.195 76.0938 136.367 75.0469C136.555 74 136.688 72.7656 136.766 71.3438C136.859 69.9062 136.906 68.2344 136.906 66.3281ZM169.438 73.9219C169.438 74.0625 169.445 74.2188 169.461 74.3906C169.477 74.5469 169.516 74.7031 169.578 74.8594C169.641 75 169.734 75.1172 169.859 75.2109C169.984 75.3047 170.164 75.3516 170.398 75.3516C170.695 75.3516 170.961 75.25 171.195 75.0469C171.43 74.8281 171.648 74.6094 171.852 74.3906L172.414 74.8828C172.18 75.2109 171.883 75.5781 171.523 75.9844C171.18 76.375 170.758 76.75 170.258 77.1094C169.758 77.4688 169.188 77.7656 168.547 78C167.906 78.25 167.18 78.375 166.367 78.375C165.68 78.375 165.078 78.2812 164.562 78.0938C164.062 77.9219 163.633 77.6875 163.273 77.3906C162.93 77.0781 162.672 76.7188 162.5 76.3125C162.328 75.8906 162.242 75.4453 162.242 74.9766V73.9219C161.461 74.7656 160.641 75.5078 159.781 76.1484C159.406 76.4297 159.008 76.7031 158.586 76.9688C158.164 77.2344 157.727 77.4766 157.273 77.6953C156.82 77.8984 156.352 78.0625 155.867 78.1875C155.383 78.3125 154.898 78.375 154.414 78.375C153.477 78.375 152.672 78.2109 152 77.8828C151.344 77.5391 150.812 77.0938 150.406 76.5469C150 76 149.703 75.3828 149.516 74.6953C149.328 74.0078 149.234 73.3203 149.234 72.6328V58.125C149.234 57.9844 149.227 57.8359 149.211 57.6797C149.195 57.5078 149.156 57.3516 149.094 57.2109C149.031 57.0547 148.938 56.9297 148.812 56.8359C148.688 56.7422 148.508 56.6953 148.273 56.6953C147.992 56.6953 147.727 56.8047 147.477 57.0234C147.242 57.2266 147.031 57.4375 146.844 57.6562L146.258 57.1641C146.492 56.8359 146.781 56.4766 147.125 56.0859C147.484 55.6797 147.914 55.2969 148.414 54.9375C148.914 54.5781 149.484 54.2812 150.125 54.0469C150.781 53.7969 151.508 53.6719 152.305 53.6719C152.992 53.6719 153.594 53.7656 154.109 53.9531C154.625 54.125 155.055 54.3672 155.398 54.6797C155.742 54.9766 156 55.3359 156.172 55.7578C156.344 56.1641 156.43 56.6016 156.43 57.0703V72.7266C156.43 72.9453 156.461 73.1719 156.523 73.4062C156.602 73.625 156.703 73.8281 156.828 74.0156C156.969 74.2031 157.141 74.3594 157.344 74.4844C157.547 74.5938 157.789 74.6484 158.07 74.6484C158.523 74.6484 158.977 74.5312 159.43 74.2969C159.883 74.0625 160.297 73.7891 160.672 73.4766C161.047 73.1484 161.367 72.8281 161.633 72.5156C161.914 72.2031 162.117 71.9688 162.242 71.8125V58.125C162.242 57.9844 162.234 57.8359 162.219 57.6797C162.203 57.5078 162.164 57.3516 162.102 57.2109C162.039 57.0547 161.945 56.9297 161.82 56.8359C161.695 56.7422 161.516 56.6953 161.281 56.6953C161 56.6953 160.734 56.8047 160.484 57.0234C160.25 57.2266 160.039 57.4375 159.852 57.6562L159.266 57.1641C159.5 56.8359 159.789 56.4766 160.133 56.0859C160.492 55.6797 160.922 55.2969 161.422 54.9375C161.922 54.5781 162.492 54.2812 163.133 54.0469C163.789 53.7969 164.516 53.6719 165.312 53.6719C166 53.6719 166.602 53.7656 167.117 53.9531C167.633 54.125 168.062 54.3672 168.406 54.6797C168.75 54.9766 169.008 55.3359 169.18 55.7578C169.352 56.1641 169.438 56.6016 169.438 57.0703V73.9219Z" fill="#333333"/>
<defs>
<filter id="filter0_d_141_303" x="0" y="3" width="223" height="59" filterUnits="userSpaceOnUse" color-interpolation-filters="sRGB">
<feFlood flood-opacity="0" result="BackgroundImageFix"/>
<feColorMatrix in="SourceAlpha" type="matrix" values="0 0 0 0 0 0 0 0 0 0 0 0 0 0 0 0 0 0 127 0" result="hardAlpha"/>
<feOffset dy="-8"/>
<feComposite in2="hardAlpha" operator="out"/>
<feColorMatrix type="matrix" values="0 0 0 0 0 0 0 0 0 0 0 0 0 0 0 0 0 0 0.25 0"/>
<feBlend mode="normal" in2="BackgroundImageFix" result="effect1_dropShadow_141_303"/>
<feBlend mode="normal" in="SourceGraphic" in2="effect1_dropShadow_141_303" result="shape"/>
</filter>
</defs>
</svg>
