<svg width="223" height="113" viewBox="0 0 223 113" fill="none" xmlns="http://www.w3.org/2000/svg">
<path d="M58.2031 50.3906C58.2031 50.9375 58.2891 51.3906 58.4609 51.75C58.6328 52.0938 58.8438 52.3906 59.0938 52.6406C59.3594 52.875 59.6406 53.0703 59.9375 53.2266C60.2344 53.3828 60.5078 53.5469 60.7578 53.7188C61.0234 53.8906 61.2422 54.0859 61.4141 54.3047C61.5859 54.5234 61.6719 54.8047 61.6719 55.1484C61.6719 55.7266 61.4688 56.1719 61.0625 56.4844C60.6562 56.7812 60.1875 56.9297 59.6562 56.9297C59.1562 56.9297 58.6875 56.7734 58.25 56.4609C57.8281 56.1484 57.4531 55.7266 57.125 55.1953C56.8125 54.6484 56.5625 54.0156 56.375 53.2969C56.1875 52.5625 56.0938 51.7891 56.0938 50.9766C56.0938 49.9766 56.25 49.0234 56.5625 48.1172C56.875 47.1953 57.3359 46.3906 57.9453 45.7031C58.5547 45 59.3047 44.4453 60.1953 44.0391C61.1016 43.6328 62.1328 43.4297 63.2891 43.4297C64.0703 43.4297 64.9219 43.5625 65.8438 43.8281C66.7656 44.0781 67.6797 44.4844 68.5859 45.0469C69.5078 45.6094 70.3906 46.3359 71.2344 47.2266C72.0938 48.1172 72.8516 49.2031 73.5078 50.4844C74.1797 51.7656 74.7109 53.25 75.1016 54.9375C75.4922 56.625 75.6875 58.5391 75.6875 60.6797C75.6875 63.4453 75.2734 65.9219 74.4453 68.1094C73.6328 70.2969 72.5234 72.1562 71.1172 73.6875C69.7266 75.2031 68.1094 76.3672 66.2656 77.1797C64.4219 77.9766 62.4688 78.375 60.4062 78.375C58.3594 78.375 56.4062 78.0234 54.5469 77.3203C52.6875 76.6172 51.0469 75.5469 49.625 74.1094C48.2188 72.6562 47.0938 70.8203 46.25 68.6016C45.4219 66.3672 45.0078 63.7266 45.0078 60.6797C45.0078 58.3203 45.3203 56.1719 45.9453 54.2344C46.5859 52.2969 47.4375 50.5781 48.5 49.0781C49.5781 47.5781 50.8281 46.3203 52.25 45.3047C53.6719 44.2734 55.1797 43.4922 56.7734 42.9609L57.5703 43.9688C57.1172 44.4219 56.6953 44.8906 56.3047 45.375C55.9141 45.8594 55.5547 46.4141 55.2266 47.0391C54.8984 47.6484 54.6016 48.3594 54.3359 49.1719C54.0859 49.9688 53.875 50.9141 53.7031 52.0078C53.5312 53.0859 53.3984 54.3359 53.3047 55.7578C53.2109 57.1797 53.1641 58.8203 53.1641 60.6797C53.1641 63.0859 53.2891 65.1406 53.5391 66.8438C53.8047 68.5469 54.1406 69.9766 54.5469 71.1328C54.9688 72.2734 55.4375 73.1875 55.9531 73.875C56.4844 74.5469 57.0156 75.0547 57.5469 75.3984C58.0781 75.7422 58.5938 75.9688 59.0938 76.0781C59.5938 76.1719 60.0312 76.2188 60.4062 76.2188C60.7812 76.2188 61.2109 76.1719 61.6953 76.0781C62.1953 75.9688 62.7031 75.7422 63.2188 75.3984C63.75 75.0547 64.2734 74.5469 64.7891 73.875C65.3047 73.1875 65.7578 72.2734 66.1484 71.1328C66.5547 69.9766 66.8828 68.5469 67.1328 66.8438C67.3828 65.1406 67.5078 63.0859 67.5078 60.6797C67.5078 58.5703 67.4141 56.7344 67.2266 55.1719C67.0391 53.6094 66.7891 52.2734 66.4766 51.1641C66.1797 50.0547 65.8281 49.1484 65.4219 48.4453C65.0312 47.7266 64.6172 47.1641 64.1797 46.7578C63.7578 46.3359 63.3281 46.0469 62.8906 45.8906C62.4688 45.7344 62.0781 45.6562 61.7188 45.6562C61.1562 45.6562 60.6562 45.7891 60.2188 46.0547C59.7812 46.3203 59.4141 46.6797 59.1172 47.1328C58.8203 47.5703 58.5938 48.0781 58.4375 48.6562C58.2812 49.2188 58.2031 49.7969 58.2031 50.3906ZM88.0391 58.6172C88.6328 57.7109 89.2656 56.8906 89.9375 56.1562C90.2188 55.8438 90.5234 55.5391 90.8516 55.2422C91.1797 54.9453 91.5156 54.6797 91.8594 54.4453C92.2188 54.2109 92.5859 54.0234 92.9609 53.8828C93.3359 53.7422 93.7109 53.6719 94.0859 53.6719C94.8828 53.6719 95.5078 53.9141 95.9609 54.3984C96.4141 54.8672 96.6406 55.5312 96.6406 56.3906C96.6406 56.9219 96.5938 57.4375 96.5 57.9375C96.4219 58.4219 96.2578 59.0156 96.0078 59.7188H95.3516C95.2578 59.2344 95.0391 58.8359 94.6953 58.5234C94.3516 58.1953 93.8516 58.0312 93.1953 58.0312C92.7109 58.0312 92.2344 58.125 91.7656 58.3125C91.2969 58.4844 90.8359 58.7031 90.3828 58.9688C89.9453 59.2344 89.5234 59.5234 89.1172 59.8359C88.7266 60.1484 88.3672 60.4453 88.0391 60.7266V75.9375C88.0391 76.1406 88.0078 76.3828 87.9453 76.6641C87.8828 76.9453 87.7266 77.2109 87.4766 77.4609C87.2422 77.7109 86.8828 77.9219 86.3984 78.0938C85.9297 78.2812 85.2812 78.375 84.4531 78.375C83.625 78.375 82.9688 78.2734 82.4844 78.0703C82.0156 77.8828 81.6562 77.6562 81.4062 77.3906C81.1562 77.125 81 76.8516 80.9375 76.5703C80.875 76.2891 80.8438 76.0625 80.8438 75.8906V57.7969C80.8438 57.3438 80.7344 56.9531 80.5156 56.625C80.3125 56.2812 79.9609 56.1094 79.4609 56.1094C79.1953 56.1094 78.9688 56.1562 78.7812 56.25C78.5938 56.3438 78.3906 56.4766 78.1719 56.6484L77.6797 56.0625C78.0391 55.7656 78.4375 55.4766 78.875 55.1953C79.3281 54.8984 79.8125 54.6406 80.3281 54.4219C80.8438 54.2031 81.3984 54.0234 81.9922 53.8828C82.5859 53.7422 83.2109 53.6719 83.8672 53.6719C84.5391 53.6719 85.1094 53.7656 85.5781 53.9531C86.0625 54.125 86.4531 54.3594 86.75 54.6562C87.0625 54.9375 87.3047 55.2578 87.4766 55.6172C87.6484 55.9766 87.7734 56.3438 87.8516 56.7188C87.9453 57.0781 88 57.4297 88.0156 57.7734C88.0312 58.1016 88.0391 58.3828 88.0391 58.6172ZM111.664 65.2734C111.664 65.1016 111.664 64.7578 111.664 64.2422C111.664 63.7109 111.648 63.1094 111.617 62.4375C111.586 61.75 111.531 61.0234 111.453 60.2578C111.375 59.4922 111.25 58.7812 111.078 58.125C110.703 57.6406 110.281 57.2109 109.812 56.8359C109.359 56.4453 108.773 56.25 108.055 56.25C106.836 56.25 105.938 57.0469 105.359 58.6406C104.797 60.2344 104.516 62.7031 104.516 66.0469C104.516 67.5156 104.578 68.8594 104.703 70.0781C104.844 71.2969 105.047 72.3438 105.312 73.2188C105.594 74.0938 105.945 74.7734 106.367 75.2578C106.805 75.7422 107.32 75.9844 107.914 75.9844C110.414 75.9844 111.664 72.4141 111.664 65.2734ZM111.383 54.9609C111.086 53.3984 110.672 51.9453 110.141 50.6016C109.609 49.2422 108.969 48.0703 108.219 47.0859C107.484 46.1016 106.641 45.3281 105.688 44.7656C104.75 44.2031 103.734 43.9219 102.641 43.9219C102.016 43.9219 101.445 44 100.93 44.1562C100.43 44.3125 99.9922 44.5 99.6172 44.7188C99.2422 44.9219 98.9297 45.125 98.6797 45.3281C98.4453 45.5156 98.2734 45.6562 98.1641 45.75L97.5547 44.9297C97.9297 44.4453 98.3828 43.9922 98.9141 43.5703C99.4609 43.1484 100.055 42.7891 100.695 42.4922C101.336 42.1953 102.008 41.9609 102.711 41.7891C103.43 41.6172 104.141 41.5312 104.844 41.5312C107.156 41.5312 109.188 42.0391 110.938 43.0547C112.688 44.0547 114.148 45.4766 115.32 47.3203C116.492 49.1641 117.375 51.3906 117.969 54C118.562 56.6094 118.859 59.5078 118.859 62.6953C118.859 65.2734 118.594 67.5391 118.062 69.4922C117.547 71.4453 116.805 73.0859 115.836 74.4141C114.867 75.7266 113.688 76.7188 112.297 77.3906C110.922 78.0469 109.367 78.375 107.633 78.375C106.43 78.375 105.203 78.1641 103.953 77.7422C102.719 77.3047 101.594 76.6016 100.578 75.6328C99.5781 74.6641 98.7578 73.3984 98.1172 71.8359C97.4766 70.2578 97.1562 68.3281 97.1562 66.0469C97.1562 64.0781 97.4297 62.3281 97.9766 60.7969C98.5391 59.2656 99.2891 57.9766 100.227 56.9297C101.164 55.8672 102.25 55.0625 103.484 54.5156C104.719 53.9531 106.023 53.6719 107.398 53.6719C107.93 53.6719 108.406 53.7188 108.828 53.8125C109.25 53.8906 109.617 53.9922 109.93 54.1172C110.242 54.2422 110.516 54.3828 110.75 54.5391C110.984 54.6797 111.195 54.8203 111.383 54.9609ZM129.406 67.2422C129.406 67.7422 129.477 68.2891 129.617 68.8828C129.773 69.4609 129.992 70.0469 130.273 70.6406C130.555 71.2344 130.898 71.8047 131.305 72.3516C131.727 72.8828 132.203 73.3594 132.734 73.7812C133.281 74.2031 133.883 74.5391 134.539 74.7891C135.195 75.0391 135.914 75.1641 136.695 75.1641C137.242 75.1641 137.75 75.1016 138.219 74.9766C138.688 74.8516 139.125 74.6797 139.531 74.4609C139.938 74.2422 140.328 73.9922 140.703 73.7109C141.078 73.4141 141.453 73.1016 141.828 72.7734L142.414 73.3359C142.055 73.8203 141.594 74.3516 141.031 74.9297C140.469 75.5078 139.789 76.0547 138.992 76.5703C138.195 77.0703 137.266 77.4922 136.203 77.8359C135.141 78.1641 133.93 78.3281 132.57 78.3281C131.211 78.3281 129.883 78.0859 128.586 77.6016C127.305 77.1016 126.164 76.3594 125.164 75.375C124.164 74.3906 123.359 73.1641 122.75 71.6953C122.156 70.2266 121.859 68.5078 121.859 66.5391C121.859 65.1172 122.039 63.8125 122.398 62.625C122.758 61.4375 123.242 60.3672 123.852 59.4141C124.477 58.4609 125.195 57.625 126.008 56.9062C126.836 56.1875 127.703 55.5938 128.609 55.125C129.516 54.6406 130.438 54.2812 131.375 54.0469C132.328 53.7969 133.242 53.6719 134.117 53.6719C135.273 53.6719 136.281 53.7969 137.141 54.0469C138 54.2969 138.711 54.6328 139.273 55.0547C139.852 55.4766 140.281 55.9688 140.562 56.5312C140.844 57.0781 140.984 57.6562 140.984 58.2656C140.984 59 140.773 59.6641 140.352 60.2578C139.93 60.8359 139.367 61.3438 138.664 61.7812L129.406 67.2422ZM134.117 62.4844C134.32 62.3594 134.484 62.2422 134.609 62.1328C134.75 62.0078 134.859 61.8672 134.938 61.7109C135.016 61.5391 135.07 61.3359 135.102 61.1016C135.148 60.8516 135.172 60.5469 135.172 60.1875C135.172 59.7969 135.125 59.3672 135.031 58.8984C134.953 58.4141 134.812 57.9609 134.609 57.5391C134.406 57.1172 134.148 56.7656 133.836 56.4844C133.523 56.2031 133.148 56.0625 132.711 56.0625C132.148 56.0625 131.664 56.2344 131.258 56.5781C130.867 56.9062 130.539 57.3359 130.273 57.8672C130.023 58.3984 129.82 59.0078 129.664 59.6953C129.523 60.3672 129.414 61.0469 129.336 61.7344C129.258 62.4219 129.211 63.0859 129.195 63.7266C129.18 64.3516 129.172 64.8828 129.172 65.3203L134.117 62.4844ZM153.055 58.6172C153.648 57.7109 154.281 56.8906 154.953 56.1562C155.234 55.8438 155.539 55.5391 155.867 55.2422C156.195 54.9453 156.531 54.6797 156.875 54.4453C157.234 54.2109 157.602 54.0234 157.977 53.8828C158.352 53.7422 158.727 53.6719 159.102 53.6719C159.898 53.6719 160.523 53.9141 160.977 54.3984C161.43 54.8672 161.656 55.5312 161.656 56.3906C161.656 56.9219 161.609 57.4375 161.516 57.9375C161.438 58.4219 161.273 59.0156 161.023 59.7188H160.367C160.273 59.2344 160.055 58.8359 159.711 58.5234C159.367 58.1953 158.867 58.0312 158.211 58.0312C157.727 58.0312 157.25 58.125 156.781 58.3125C156.312 58.4844 155.852 58.7031 155.398 58.9688C154.961 59.2344 154.539 59.5234 154.133 59.8359C153.742 60.1484 153.383 60.4453 153.055 60.7266V75.9375C153.055 76.1406 153.023 76.3828 152.961 76.6641C152.898 76.9453 152.742 77.2109 152.492 77.4609C152.258 77.7109 151.898 77.9219 151.414 78.0938C150.945 78.2812 150.297 78.375 149.469 78.375C148.641 78.375 147.984 78.2734 147.5 78.0703C147.031 77.8828 146.672 77.6562 146.422 77.3906C146.172 77.125 146.016 76.8516 145.953 76.5703C145.891 76.2891 145.859 76.0625 145.859 75.8906V57.7969C145.859 57.3438 145.75 56.9531 145.531 56.625C145.328 56.2812 144.977 56.1094 144.477 56.1094C144.211 56.1094 143.984 56.1562 143.797 56.25C143.609 56.3438 143.406 56.4766 143.188 56.6484L142.695 56.0625C143.055 55.7656 143.453 55.4766 143.891 55.1953C144.344 54.8984 144.828 54.6406 145.344 54.4219C145.859 54.2031 146.414 54.0234 147.008 53.8828C147.602 53.7422 148.227 53.6719 148.883 53.6719C149.555 53.6719 150.125 53.7656 150.594 53.9531C151.078 54.125 151.469 54.3594 151.766 54.6562C152.078 54.9375 152.32 55.2578 152.492 55.6172C152.664 55.9766 152.789 56.3438 152.867 56.7188C152.961 57.0781 153.016 57.4297 153.031 57.7734C153.047 58.1016 153.055 58.3828 153.055 58.6172ZM172.18 55.5469C171.82 55.5469 171.477 55.5938 171.148 55.6875C170.836 55.7812 170.555 55.9375 170.305 56.1562C170.055 56.3594 169.859 56.625 169.719 56.9531C169.578 57.2656 169.508 57.6406 169.508 58.0781C169.508 58.6875 169.727 59.2969 170.164 59.9062C170.617 60.5 171.172 61.125 171.828 61.7812C172.5 62.4219 173.219 63.0938 173.984 63.7969C174.766 64.4844 175.484 65.2188 176.141 66C176.812 66.7656 177.367 67.5859 177.805 68.4609C178.258 69.3359 178.484 70.2734 178.484 71.2734C178.484 72.3984 178.289 73.3984 177.898 74.2734C177.523 75.1484 176.977 75.8906 176.258 76.5C175.555 77.1094 174.695 77.5781 173.68 77.9062C172.68 78.2188 171.562 78.375 170.328 78.375C169.25 78.375 168.273 78.2266 167.398 77.9297C166.523 77.6172 165.742 77.2422 165.055 76.8047C164.383 76.3516 163.805 75.875 163.32 75.375C162.836 74.875 162.461 74.4219 162.195 74.0156L163.016 73.4297C163.219 73.6641 163.477 73.9219 163.789 74.2031C164.102 74.4688 164.445 74.7188 164.82 74.9531C165.211 75.1875 165.625 75.3828 166.062 75.5391C166.5 75.6797 166.945 75.75 167.398 75.75C168.523 75.75 169.445 75.4844 170.164 74.9531C170.883 74.4062 171.242 73.6016 171.242 72.5391C171.242 71.9453 171.047 71.3359 170.656 70.7109C170.266 70.0703 169.773 69.4141 169.18 68.7422C168.586 68.0703 167.945 67.375 167.258 66.6562C166.57 65.9375 165.93 65.1953 165.336 64.4297C164.742 63.6641 164.25 62.875 163.859 62.0625C163.469 61.25 163.273 60.4062 163.273 59.5312C163.273 58.5469 163.469 57.6875 163.859 56.9531C164.266 56.2188 164.797 55.6094 165.453 55.125C166.125 54.6406 166.883 54.2812 167.727 54.0469C168.586 53.7969 169.469 53.6719 170.375 53.6719C171.422 53.6719 172.375 53.7656 173.234 53.9531C174.094 54.1406 174.828 54.4297 175.438 54.8203C176.062 55.1953 176.539 55.6719 176.867 56.25C177.211 56.8281 177.383 57.5 177.383 58.2656C177.383 58.8594 177.188 59.375 176.797 59.8125C176.406 60.25 175.859 60.4688 175.156 60.4688C174.484 60.4688 173.969 60.3281 173.609 60.0469C173.266 59.75 173.094 59.3516 173.094 58.8516C173.094 58.5234 173.172 58.2656 173.328 58.0781C173.5 57.8906 173.688 57.7422 173.891 57.6328C174.094 57.5078 174.273 57.4062 174.43 57.3281C174.602 57.2344 174.688 57.1172 174.688 56.9766C174.688 56.5391 174.453 56.1953 173.984 55.9453C173.516 55.6797 172.914 55.5469 172.18 55.5469Z" fill="#333333"/>
<path d="M110.173 6C5.6545 6 2 65 2 65C2 65 15.1557 17.4937 110.173 17.4936C205.19 17.4935 222 65 222 65C222 65 214.691 6 110.173 6Z" fill="black" fill-opacity="0.25"/>
</svg>
