<svg width="223" height="87" viewBox="0 0 223 87" fill="none" xmlns="http://www.w3.org/2000/svg">
<g filter="url(#filter0_d_0_1)">
<path d="M223 59C223 45.474 211.253 32.5019 190.342 22.9376C169.432 13.3732 141.072 8 111.5 8C81.9284 8 53.5679 13.3732 32.6576 22.9376C11.7473 32.5019 4.46519e-06 45.474 0 59L111.5 59H223Z" fill="white" fill-opacity="0.01" shape-rendering="crispEdges"/>
</g>
<path d="M31.4141 67.6094L22.9766 50.8047L22.6719 56.4531C22.5781 58.0938 22.4922 59.7266 22.4141 61.3516C22.3516 62.9609 22.2266 64.5 22.0391 65.9688C21.8516 67.4219 21.5547 68.7734 21.1484 70.0234C20.7578 71.2734 20.1797 72.3594 19.4141 73.2812C18.6641 74.1875 17.6797 74.8984 16.4609 75.4141C15.2578 75.9297 13.75 76.1875 11.9375 76.1875C11.1406 76.1875 10.375 76.125 9.64062 76C8.90625 75.8594 8.25781 75.6719 7.69531 75.4375C7.13281 75.2031 6.6875 74.9297 6.35938 74.6172C6.01562 74.2891 5.84375 73.9375 5.84375 73.5625C5.84375 73.2812 5.88281 73 5.96094 72.7188C6.03906 72.4219 6.15625 72.1562 6.3125 71.9219C6.46875 71.6719 6.66406 71.4766 6.89844 71.3359C7.11719 71.1797 7.36719 71.1016 7.64844 71.1016C7.82031 71.1016 7.96875 71.1875 8.09375 71.3594C8.23438 71.5312 8.375 71.75 8.51562 72.0156C8.65625 72.2656 8.8125 72.5391 8.98438 72.8359C9.17188 73.1328 9.40625 73.4141 9.6875 73.6797C9.98438 73.9297 10.3359 74.1406 10.7422 74.3125C11.1484 74.4844 11.6562 74.5703 12.2656 74.5703C13.4688 74.5703 14.4766 74.3672 15.2891 73.9609C16.1172 73.5391 16.7969 72.9375 17.3281 72.1562C17.8594 71.375 18.2656 70.4297 18.5469 69.3203C18.8281 68.2109 19.0391 66.9531 19.1797 65.5469C19.2422 64.7656 19.3047 64.0156 19.3672 63.2969C19.4297 62.5625 19.4922 61.8359 19.5547 61.1172C19.6172 60.3984 19.6719 59.6719 19.7188 58.9375C19.7812 58.1875 19.8438 57.3984 19.9062 56.5703C19.9844 55.3672 20.0547 54.2266 20.1172 53.1484C20.1797 52.0547 20.2266 51.0391 20.2578 50.1016C20.3047 49.1641 20.3359 48.3203 20.3516 47.5703C20.3828 46.8203 20.4062 46.1719 20.4219 45.625C20.1562 45.0781 19.9219 44.6406 19.7188 44.3125C19.5156 43.9688 19.3047 43.7109 19.0859 43.5391C18.8672 43.3516 18.625 43.2266 18.3594 43.1641C18.0938 43.1016 17.7734 43.0703 17.3984 43.0703C17.0859 43.0703 16.6953 43.1328 16.2266 43.2578C15.7734 43.3672 15.2969 43.5312 14.7969 43.75C14.3125 43.9688 13.8203 44.2422 13.3203 44.5703C12.8359 44.8828 12.3984 45.25 12.0078 45.6719C11.6328 46.0781 11.3203 46.5312 11.0703 47.0312C10.8359 47.5312 10.7188 48.0703 10.7188 48.6484C10.7188 49.1484 10.7812 49.5469 10.9062 49.8438C11.0469 50.1406 11.2031 50.3672 11.375 50.5234C11.5625 50.6641 11.7422 50.7578 11.9141 50.8047C12.1016 50.8359 12.2344 50.8516 12.3125 50.8516C12.7031 50.8516 13.0234 50.7891 13.2734 50.6641C13.5234 50.5234 13.75 50.3828 13.9531 50.2422C14.1562 50.0859 14.3438 49.9453 14.5156 49.8203C14.7031 49.6797 14.9141 49.6094 15.1484 49.6094C15.3359 49.6094 15.5312 49.6562 15.7344 49.75C15.9531 49.8281 16.1484 49.9609 16.3203 50.1484C16.5078 50.3359 16.6641 50.5859 16.7891 50.8984C16.9141 51.1953 16.9766 51.5625 16.9766 52C16.9766 52.625 16.8516 53.1641 16.6016 53.6172C16.3672 54.0703 16.0547 54.4531 15.6641 54.7656C15.2891 55.0625 14.8516 55.2891 14.3516 55.4453C13.8672 55.5859 13.3828 55.6562 12.8984 55.6562C12.1484 55.6562 11.4688 55.5312 10.8594 55.2812C10.2656 55.0156 9.75781 54.6562 9.33594 54.2031C8.91406 53.75 8.59375 53.2188 8.375 52.6094C8.15625 52 8.04688 51.3516 8.04688 50.6641C8.04688 49.0391 8.42188 47.625 9.17188 46.4219C9.92188 45.2031 10.9062 44.1875 12.125 43.375C13.3438 42.5625 14.7188 41.9609 16.25 41.5703C17.7969 41.1641 19.3672 40.9609 20.9609 40.9609C22.2422 40.9609 23.3125 41.0938 24.1719 41.3594C25.0312 41.6094 25.75 41.9531 26.3281 42.3906C26.9062 42.8125 27.3828 43.3125 27.7578 43.8906C28.1328 44.4688 28.4766 45.0781 28.7891 45.7188L34.9766 58.2812C36.5859 55.1094 38.0469 52.2734 39.3594 49.7734C40.6875 47.2578 41.9141 45.0469 43.0391 43.1406C44.1641 41.2344 45.2109 39.6094 46.1797 38.2656C47.1641 36.9219 48.1094 35.8281 49.0156 34.9844C49.9375 34.125 50.8438 33.5 51.7344 33.1094C52.6406 32.7188 53.5781 32.5234 54.5469 32.5234C55.375 32.5234 56.0469 32.7031 56.5625 33.0625C57.0781 33.4062 57.3359 33.9297 57.3359 34.6328C57.3359 35.2578 57.2344 35.7734 57.0312 36.1797C56.8281 36.5859 56.5469 36.7891 56.1875 36.7891C55.8906 36.7891 55.6641 36.6797 55.5078 36.4609C55.3516 36.2266 55.1953 35.9766 55.0391 35.7109C54.8984 35.4453 54.7188 35.2031 54.5 34.9844C54.2812 34.75 53.9609 34.6328 53.5391 34.6328C53.2891 34.6328 52.9844 34.7031 52.625 34.8438C52.2656 34.9844 51.8906 35.1953 51.5 35.4766C51.125 35.7578 50.75 36.1094 50.375 36.5312C50 36.9531 49.6719 37.4453 49.3906 38.0078C49.1094 38.5703 48.8906 39.2109 48.7344 39.9297C48.5781 40.6484 48.5312 41.4375 48.5938 42.2969C48.6562 43.2812 48.7422 44.4375 48.8516 45.7656C48.9609 47.0781 49.0781 48.4922 49.2031 50.0078C49.3438 51.5078 49.4844 53.0625 49.625 54.6719C49.7812 56.2812 49.9375 57.8672 50.0938 59.4297C50.25 60.9922 50.3984 62.4922 50.5391 63.9297C50.6953 65.3672 50.8359 66.6719 50.9609 67.8438C51.0859 69 51.2031 69.9844 51.3125 70.7969C51.4219 71.5938 51.5078 72.1406 51.5703 72.4375C51.6641 72.8906 51.7891 73.2578 51.9453 73.5391C52.1016 73.8047 52.3828 73.9375 52.7891 73.9375C53.2109 73.9375 53.6094 73.8672 53.9844 73.7266C54.3594 73.5703 54.6953 73.4141 54.9922 73.2578L55.3672 74.125C55.0859 74.3281 54.7266 74.5625 54.2891 74.8281C53.8672 75.0781 53.375 75.3203 52.8125 75.5547C52.2656 75.7891 51.6562 75.9844 50.9844 76.1406C50.3281 76.2969 49.6172 76.375 48.8516 76.375C47.7734 76.375 46.9219 76.2422 46.2969 75.9766C45.6719 75.6953 45.1875 75.3594 44.8438 74.9688C44.5156 74.5625 44.2891 74.1406 44.1641 73.7031C44.0547 73.25 43.9688 72.8438 43.9062 72.4844C43.7656 71.6875 43.6172 70.7266 43.4609 69.6016C43.3047 68.4766 43.1484 67.2734 42.9922 65.9922C42.8516 64.6953 42.7109 63.3672 42.5703 62.0078C42.4297 60.6328 42.2969 59.2969 42.1719 58C42.0625 56.6875 41.9609 55.4531 41.8672 54.2969C41.7734 53.1406 41.6953 52.1328 41.6328 51.2734C41.1641 52.0391 40.7266 52.7812 40.3203 53.5C39.9297 54.2031 39.5469 54.9297 39.1719 55.6797C38.7969 56.4141 38.4141 57.1875 38.0234 58C37.6328 58.8125 37.2188 59.6953 36.7812 60.6484C36.3594 61.6016 35.8906 62.6484 35.375 63.7891C34.875 64.9297 34.3203 66.2031 33.7109 67.6094H31.4141ZM76.5547 55.3516C76.5547 58.2109 76.2734 60.9766 75.7109 63.6484C75.1641 66.3047 74.3984 68.8047 73.4141 71.1484C72.4453 73.4766 71.2891 75.6016 69.9453 77.5234C68.6016 79.4609 67.1406 81.1172 65.5625 82.4922C63.9844 83.8672 62.3125 84.9375 60.5469 85.7031C58.7969 86.4688 57.0234 86.8516 55.2266 86.8516C53.8516 86.8516 52.7891 86.6172 52.0391 86.1484C51.2891 85.6953 50.9141 85.0781 50.9141 84.2969C50.9141 84 50.9609 83.7109 51.0547 83.4297C51.1484 83.1484 51.2734 82.8984 51.4297 82.6797C51.5859 82.4609 51.7734 82.2812 51.9922 82.1406C52.2109 82.0156 52.4453 81.9531 52.6953 81.9531C52.9922 81.9531 53.2422 82.1016 53.4453 82.3984C53.6328 82.6953 53.8359 83.0156 54.0547 83.3594C54.2734 83.7188 54.5391 84.0469 54.8516 84.3438C55.1641 84.6406 55.5938 84.7891 56.1406 84.7891C56.8438 84.7891 57.5781 84.6641 58.3438 84.4141C59.1094 84.1797 59.875 83.8359 60.6406 83.3828C61.4219 82.9297 62.1953 82.375 62.9609 81.7188C63.7422 81.0781 64.5078 80.3594 65.2578 79.5625C64.8203 77.9844 64.3125 76.2656 63.7344 74.4062C63.1719 72.5312 62.5703 70.6484 61.9297 68.7578C61.3047 66.8672 60.6562 65.0469 59.9844 63.2969C59.3281 61.5312 58.6797 59.9688 58.0391 58.6094C57.4141 57.25 56.8047 56.1641 56.2109 55.3516C55.6328 54.5234 55.1172 54.1094 54.6641 54.1094C54.3672 54.1094 54.1406 54.1562 53.9844 54.25C53.8125 54.3438 53.6172 54.4766 53.3984 54.6484L52.9297 54.0625C53.2422 53.7969 53.5703 53.5234 53.9141 53.2422C54.2578 52.9609 54.6641 52.7031 55.1328 52.4688C55.6016 52.2344 56.1484 52.0469 56.7734 51.9062C57.3984 51.75 58.1484 51.6719 59.0234 51.6719C59.9766 51.6719 60.8594 51.8906 61.6719 52.3281C62.5 52.75 63.25 53.5391 63.9219 54.6953C64.4062 55.5547 64.9062 56.5859 65.4219 57.7891C65.9531 58.9922 66.4844 60.3359 67.0156 61.8203C67.5469 63.3047 68.0781 64.9141 68.6094 66.6484C69.1562 68.3672 69.7031 70.1719 70.25 72.0625C71.2188 70.0312 72 67.8828 72.5938 65.6172C73.1875 63.3359 73.4844 60.9922 73.4844 58.5859C73.4844 57.7266 73.4297 56.9922 73.3203 56.3828C73.2109 55.7734 73.0859 55.2578 72.9453 54.8359C72.8047 54.3984 72.6797 54.0312 72.5703 53.7344C72.4609 53.4219 72.4062 53.1484 72.4062 52.9141C72.4062 52.6797 72.5 52.4844 72.6875 52.3281C72.875 52.1562 73.1016 52.0234 73.3672 51.9297C73.6328 51.8359 73.8984 51.7734 74.1641 51.7422C74.4453 51.6953 74.6797 51.6719 74.8672 51.6719C75.2891 51.6719 75.6094 51.7578 75.8281 51.9297C76.0625 52.1016 76.2344 52.3516 76.3438 52.6797C76.4531 52.9922 76.5156 53.375 76.5312 53.8281C76.5469 54.2812 76.5547 54.7891 76.5547 55.3516ZM90.2656 64C90.2656 61.9531 90.5625 60.1641 91.1562 58.6328C91.75 57.0859 92.5391 55.7969 93.5234 54.7656C94.5234 53.7344 95.6797 52.9609 96.9922 52.4453C98.3047 51.9297 99.6797 51.6719 101.117 51.6719C102.555 51.6719 103.93 51.9141 105.242 52.3984C106.555 52.8672 107.703 53.5938 108.688 54.5781C109.688 55.5625 110.484 56.8125 111.078 58.3281C111.672 59.8281 111.969 61.6094 111.969 63.6719C111.969 65.7188 111.672 67.5312 111.078 69.1094C110.484 70.6875 109.688 72.0156 108.688 73.0938C107.703 74.1719 106.555 74.9922 105.242 75.5547C103.93 76.1016 102.555 76.375 101.117 76.375C99.6797 76.375 98.3047 76.1172 96.9922 75.6016C95.6797 75.0703 94.5234 74.2891 93.5234 73.2578C92.5391 72.2266 91.75 70.9375 91.1562 69.3906C90.5625 67.8438 90.2656 66.0469 90.2656 64ZM104.68 63.7656C104.68 62.5156 104.633 61.3125 104.539 60.1562C104.461 58.9844 104.297 57.9453 104.047 57.0391C103.797 56.1328 103.438 55.4141 102.969 54.8828C102.5 54.3359 101.883 54.0625 101.117 54.0625C100.352 54.0625 99.7344 54.3516 99.2656 54.9297C98.7969 55.4922 98.4375 56.2422 98.1875 57.1797C97.9375 58.1016 97.7734 59.1562 97.6953 60.3438C97.6172 61.5312 97.5781 62.75 97.5781 64C97.5781 65.25 97.6172 66.4766 97.6953 67.6797C97.7734 68.8672 97.9375 69.9297 98.1875 70.8672C98.4375 71.8047 98.7969 72.5625 99.2656 73.1406C99.7344 73.7031 100.352 73.9844 101.117 73.9844C101.883 73.9844 102.5 73.6875 102.969 73.0938C103.438 72.5 103.797 71.7188 104.047 70.75C104.297 69.7812 104.461 68.6875 104.539 67.4688C104.633 66.25 104.68 65.0156 104.68 63.7656ZM123.852 56.6172C124.445 55.7109 125.078 54.8906 125.75 54.1562C126.031 53.8438 126.336 53.5391 126.664 53.2422C126.992 52.9453 127.328 52.6797 127.672 52.4453C128.031 52.2109 128.398 52.0234 128.773 51.8828C129.148 51.7422 129.523 51.6719 129.898 51.6719C130.695 51.6719 131.32 51.9141 131.773 52.3984C132.227 52.8672 132.453 53.5312 132.453 54.3906C132.453 54.9219 132.406 55.4375 132.312 55.9375C132.234 56.4219 132.07 57.0156 131.82 57.7188H131.164C131.07 57.2344 130.852 56.8359 130.508 56.5234C130.164 56.1953 129.664 56.0312 129.008 56.0312C128.523 56.0312 128.047 56.125 127.578 56.3125C127.109 56.4844 126.648 56.7031 126.195 56.9688C125.758 57.2344 125.336 57.5234 124.93 57.8359C124.539 58.1484 124.18 58.4453 123.852 58.7266V73.9375C123.852 74.1406 123.82 74.3828 123.758 74.6641C123.695 74.9453 123.539 75.2109 123.289 75.4609C123.055 75.7109 122.695 75.9219 122.211 76.0938C121.742 76.2812 121.094 76.375 120.266 76.375C119.438 76.375 118.781 76.2734 118.297 76.0703C117.828 75.8828 117.469 75.6562 117.219 75.3906C116.969 75.125 116.812 74.8516 116.75 74.5703C116.688 74.2891 116.656 74.0625 116.656 73.8906V55.7969C116.656 55.3438 116.547 54.9531 116.328 54.625C116.125 54.2812 115.773 54.1094 115.273 54.1094C115.008 54.1094 114.781 54.1562 114.594 54.25C114.406 54.3438 114.203 54.4766 113.984 54.6484L113.492 54.0625C113.852 53.7656 114.25 53.4766 114.688 53.1953C115.141 52.8984 115.625 52.6406 116.141 52.4219C116.656 52.2031 117.211 52.0234 117.805 51.8828C118.398 51.7422 119.023 51.6719 119.68 51.6719C120.352 51.6719 120.922 51.7656 121.391 51.9531C121.875 52.125 122.266 52.3594 122.562 52.6562C122.875 52.9375 123.117 53.2578 123.289 53.6172C123.461 53.9766 123.586 54.3438 123.664 54.7188C123.758 55.0781 123.812 55.4297 123.828 55.7734C123.844 56.1016 123.852 56.3828 123.852 56.6172ZM147.477 63.2734C147.477 63.1016 147.477 62.7578 147.477 62.2422C147.477 61.7109 147.461 61.1094 147.43 60.4375C147.398 59.75 147.344 59.0234 147.266 58.2578C147.188 57.4922 147.062 56.7812 146.891 56.125C146.516 55.6406 146.094 55.2109 145.625 54.8359C145.172 54.4453 144.586 54.25 143.867 54.25C142.648 54.25 141.75 55.0469 141.172 56.6406C140.609 58.2344 140.328 60.7031 140.328 64.0469C140.328 65.5156 140.391 66.8594 140.516 68.0781C140.656 69.2969 140.859 70.3438 141.125 71.2188C141.406 72.0938 141.758 72.7734 142.18 73.2578C142.617 73.7422 143.133 73.9844 143.727 73.9844C146.227 73.9844 147.477 70.4141 147.477 63.2734ZM147.195 52.9609C146.898 51.3984 146.484 49.9453 145.953 48.6016C145.422 47.2422 144.781 46.0703 144.031 45.0859C143.297 44.1016 142.453 43.3281 141.5 42.7656C140.562 42.2031 139.547 41.9219 138.453 41.9219C137.828 41.9219 137.258 42 136.742 42.1562C136.242 42.3125 135.805 42.5 135.43 42.7188C135.055 42.9219 134.742 43.125 134.492 43.3281C134.258 43.5156 134.086 43.6562 133.977 43.75L133.367 42.9297C133.742 42.4453 134.195 41.9922 134.727 41.5703C135.273 41.1484 135.867 40.7891 136.508 40.4922C137.148 40.1953 137.82 39.9609 138.523 39.7891C139.242 39.6172 139.953 39.5312 140.656 39.5312C142.969 39.5312 145 40.0391 146.75 41.0547C148.5 42.0547 149.961 43.4766 151.133 45.3203C152.305 47.1641 153.188 49.3906 153.781 52C154.375 54.6094 154.672 57.5078 154.672 60.6953C154.672 63.2734 154.406 65.5391 153.875 67.4922C153.359 69.4453 152.617 71.0859 151.648 72.4141C150.68 73.7266 149.5 74.7188 148.109 75.3906C146.734 76.0469 145.18 76.375 143.445 76.375C142.242 76.375 141.016 76.1641 139.766 75.7422C138.531 75.3047 137.406 74.6016 136.391 73.6328C135.391 72.6641 134.57 71.3984 133.93 69.8359C133.289 68.2578 132.969 66.3281 132.969 64.0469C132.969 62.0781 133.242 60.3281 133.789 58.7969C134.352 57.2656 135.102 55.9766 136.039 54.9297C136.977 53.8672 138.062 53.0625 139.297 52.5156C140.531 51.9531 141.836 51.6719 143.211 51.6719C143.742 51.6719 144.219 51.7188 144.641 51.8125C145.062 51.8906 145.43 51.9922 145.742 52.1172C146.055 52.2422 146.328 52.3828 146.562 52.5391C146.797 52.6797 147.008 52.8203 147.195 52.9609ZM165.219 65.2422C165.219 65.7422 165.289 66.2891 165.43 66.8828C165.586 67.4609 165.805 68.0469 166.086 68.6406C166.367 69.2344 166.711 69.8047 167.117 70.3516C167.539 70.8828 168.016 71.3594 168.547 71.7812C169.094 72.2031 169.695 72.5391 170.352 72.7891C171.008 73.0391 171.727 73.1641 172.508 73.1641C173.055 73.1641 173.562 73.1016 174.031 72.9766C174.5 72.8516 174.938 72.6797 175.344 72.4609C175.75 72.2422 176.141 71.9922 176.516 71.7109C176.891 71.4141 177.266 71.1016 177.641 70.7734L178.227 71.3359C177.867 71.8203 177.406 72.3516 176.844 72.9297C176.281 73.5078 175.602 74.0547 174.805 74.5703C174.008 75.0703 173.078 75.4922 172.016 75.8359C170.953 76.1641 169.742 76.3281 168.383 76.3281C167.023 76.3281 165.695 76.0859 164.398 75.6016C163.117 75.1016 161.977 74.3594 160.977 73.375C159.977 72.3906 159.172 71.1641 158.562 69.6953C157.969 68.2266 157.672 66.5078 157.672 64.5391C157.672 63.1172 157.852 61.8125 158.211 60.625C158.57 59.4375 159.055 58.3672 159.664 57.4141C160.289 56.4609 161.008 55.625 161.82 54.9062C162.648 54.1875 163.516 53.5938 164.422 53.125C165.328 52.6406 166.25 52.2812 167.188 52.0469C168.141 51.7969 169.055 51.6719 169.93 51.6719C171.086 51.6719 172.094 51.7969 172.953 52.0469C173.812 52.2969 174.523 52.6328 175.086 53.0547C175.664 53.4766 176.094 53.9688 176.375 54.5312C176.656 55.0781 176.797 55.6562 176.797 56.2656C176.797 57 176.586 57.6641 176.164 58.2578C175.742 58.8359 175.18 59.3438 174.477 59.7812L165.219 65.2422ZM169.93 60.4844C170.133 60.3594 170.297 60.2422 170.422 60.1328C170.562 60.0078 170.672 59.8672 170.75 59.7109C170.828 59.5391 170.883 59.3359 170.914 59.1016C170.961 58.8516 170.984 58.5469 170.984 58.1875C170.984 57.7969 170.938 57.3672 170.844 56.8984C170.766 56.4141 170.625 55.9609 170.422 55.5391C170.219 55.1172 169.961 54.7656 169.648 54.4844C169.336 54.2031 168.961 54.0625 168.523 54.0625C167.961 54.0625 167.477 54.2344 167.07 54.5781C166.68 54.9062 166.352 55.3359 166.086 55.8672C165.836 56.3984 165.633 57.0078 165.477 57.6953C165.336 58.3672 165.227 59.0469 165.148 59.7344C165.07 60.4219 165.023 61.0859 165.008 61.7266C164.992 62.3516 164.984 62.8828 164.984 63.3203L169.93 60.4844ZM188.867 56.6172C189.461 55.7109 190.094 54.8906 190.766 54.1562C191.047 53.8438 191.352 53.5391 191.68 53.2422C192.008 52.9453 192.344 52.6797 192.688 52.4453C193.047 52.2109 193.414 52.0234 193.789 51.8828C194.164 51.7422 194.539 51.6719 194.914 51.6719C195.711 51.6719 196.336 51.9141 196.789 52.3984C197.242 52.8672 197.469 53.5312 197.469 54.3906C197.469 54.9219 197.422 55.4375 197.328 55.9375C197.25 56.4219 197.086 57.0156 196.836 57.7188H196.18C196.086 57.2344 195.867 56.8359 195.523 56.5234C195.18 56.1953 194.68 56.0312 194.023 56.0312C193.539 56.0312 193.062 56.125 192.594 56.3125C192.125 56.4844 191.664 56.7031 191.211 56.9688C190.773 57.2344 190.352 57.5234 189.945 57.8359C189.555 58.1484 189.195 58.4453 188.867 58.7266V73.9375C188.867 74.1406 188.836 74.3828 188.773 74.6641C188.711 74.9453 188.555 75.2109 188.305 75.4609C188.07 75.7109 187.711 75.9219 187.227 76.0938C186.758 76.2812 186.109 76.375 185.281 76.375C184.453 76.375 183.797 76.2734 183.312 76.0703C182.844 75.8828 182.484 75.6562 182.234 75.3906C181.984 75.125 181.828 74.8516 181.766 74.5703C181.703 74.2891 181.672 74.0625 181.672 73.8906V55.7969C181.672 55.3438 181.562 54.9531 181.344 54.625C181.141 54.2812 180.789 54.1094 180.289 54.1094C180.023 54.1094 179.797 54.1562 179.609 54.25C179.422 54.3438 179.219 54.4766 179 54.6484L178.508 54.0625C178.867 53.7656 179.266 53.4766 179.703 53.1953C180.156 52.8984 180.641 52.6406 181.156 52.4219C181.672 52.2031 182.227 52.0234 182.82 51.8828C183.414 51.7422 184.039 51.6719 184.695 51.6719C185.367 51.6719 185.938 51.7656 186.406 51.9531C186.891 52.125 187.281 52.3594 187.578 52.6562C187.891 52.9375 188.133 53.2578 188.305 53.6172C188.477 53.9766 188.602 54.3438 188.68 54.7188C188.773 55.0781 188.828 55.4297 188.844 55.7734C188.859 56.1016 188.867 56.3828 188.867 56.6172ZM207.992 53.5469C207.633 53.5469 207.289 53.5938 206.961 53.6875C206.648 53.7812 206.367 53.9375 206.117 54.1562C205.867 54.3594 205.672 54.625 205.531 54.9531C205.391 55.2656 205.32 55.6406 205.32 56.0781C205.32 56.6875 205.539 57.2969 205.977 57.9062C206.43 58.5 206.984 59.125 207.641 59.7812C208.312 60.4219 209.031 61.0938 209.797 61.7969C210.578 62.4844 211.297 63.2188 211.953 64C212.625 64.7656 213.18 65.5859 213.617 66.4609C214.07 67.3359 214.297 68.2734 214.297 69.2734C214.297 70.3984 214.102 71.3984 213.711 72.2734C213.336 73.1484 212.789 73.8906 212.07 74.5C211.367 75.1094 210.508 75.5781 209.492 75.9062C208.492 76.2188 207.375 76.375 206.141 76.375C205.062 76.375 204.086 76.2266 203.211 75.9297C202.336 75.6172 201.555 75.2422 200.867 74.8047C200.195 74.3516 199.617 73.875 199.133 73.375C198.648 72.875 198.273 72.4219 198.008 72.0156L198.828 71.4297C199.031 71.6641 199.289 71.9219 199.602 72.2031C199.914 72.4688 200.258 72.7188 200.633 72.9531C201.023 73.1875 201.438 73.3828 201.875 73.5391C202.312 73.6797 202.758 73.75 203.211 73.75C204.336 73.75 205.258 73.4844 205.977 72.9531C206.695 72.4062 207.055 71.6016 207.055 70.5391C207.055 69.9453 206.859 69.3359 206.469 68.7109C206.078 68.0703 205.586 67.4141 204.992 66.7422C204.398 66.0703 203.758 65.375 203.07 64.6562C202.383 63.9375 201.742 63.1953 201.148 62.4297C200.555 61.6641 200.062 60.875 199.672 60.0625C199.281 59.25 199.086 58.4062 199.086 57.5312C199.086 56.5469 199.281 55.6875 199.672 54.9531C200.078 54.2188 200.609 53.6094 201.266 53.125C201.938 52.6406 202.695 52.2812 203.539 52.0469C204.398 51.7969 205.281 51.6719 206.188 51.6719C207.234 51.6719 208.188 51.7656 209.047 51.9531C209.906 52.1406 210.641 52.4297 211.25 52.8203C211.875 53.1953 212.352 53.6719 212.68 54.25C213.023 54.8281 213.195 55.5 213.195 56.2656C213.195 56.8594 213 57.375 212.609 57.8125C212.219 58.25 211.672 58.4688 210.969 58.4688C210.297 58.4688 209.781 58.3281 209.422 58.0469C209.078 57.75 208.906 57.3516 208.906 56.8516C208.906 56.5234 208.984 56.2656 209.141 56.0781C209.312 55.8906 209.5 55.7422 209.703 55.6328C209.906 55.5078 210.086 55.4062 210.242 55.3281C210.414 55.2344 210.5 55.1172 210.5 54.9766C210.5 54.5391 210.266 54.1953 209.797 53.9453C209.328 53.6797 208.727 53.5469 207.992 53.5469Z" fill="#333333"/>
<defs>
<filter id="filter0_d_0_1" x="0" y="0" width="223" height="59" filterUnits="userSpaceOnUse" color-interpolation-filters="sRGB">
<feFlood flood-opacity="0" result="BackgroundImageFix"/>
<feColorMatrix in="SourceAlpha" type="matrix" values="0 0 0 0 0 0 0 0 0 0 0 0 0 0 0 0 0 0 127 0" result="hardAlpha"/>
<feOffset dy="-8"/>
<feComposite in2="hardAlpha" operator="out"/>
<feColorMatrix type="matrix" values="0 0 0 0 0 0 0 0 0 0 0 0 0 0 0 0 0 0 0.25 0"/>
<feBlend mode="normal" in2="BackgroundImageFix" result="effect1_dropShadow_0_1"/>
<feBlend mode="normal" in="SourceGraphic" in2="effect1_dropShadow_0_1" result="shape"/>
</filter>
</defs>
</svg>
